<svg width="120" height="34" viewBox="0 0 120 34" fill="none" xmlns="http://www.w3.org/2000/svg">
<path d="M0.7 33V20.375H6.3V33H0.7ZM0.675 19.575V15.75H6.325V19.575H0.675ZM21.2318 32.675C19.4652 33.1083 17.6568 33.325 15.8068 33.325C13.9568 33.325 12.5318 33.0667 11.5318 32.55C10.5318 32.0167 9.80684 31.1333 9.35684 29.9C8.9235 28.6667 8.70684 26.8917 8.70684 24.575C8.70684 21.2583 9.21517 18.9917 10.2318 17.775C11.2652 16.5417 13.2235 15.925 16.1068 15.925C17.3068 15.925 18.7235 16.0917 20.3568 16.425L21.2318 16.6L21.0818 21.075C19.7152 20.9083 18.4485 20.825 17.2818 20.825C16.1318 20.825 15.3902 21.05 15.0568 21.5C14.7235 21.9333 14.5568 22.8417 14.5568 24.225C14.5568 25.6083 14.6318 26.5667 14.7818 27.1C14.9485 27.6333 15.2068 27.9917 15.5568 28.175C15.9068 28.3417 16.4735 28.425 17.2568 28.425L21.1568 28.275L21.2318 32.675ZM28.8672 24.625C28.8672 26.0417 29.0005 27.0667 29.2672 27.7C29.5505 28.3167 30.1255 28.625 30.9922 28.625C31.8755 28.625 32.4505 28.3167 32.7172 27.7C32.9839 27.0833 33.1172 26.0583 33.1172 24.625C33.1172 23.175 32.9839 22.15 32.7172 21.55C32.4672 20.9333 31.9005 20.625 31.0172 20.625C30.1339 20.625 29.5505 20.9417 29.2672 21.575C29.0005 22.1917 28.8672 23.2083 28.8672 24.625ZM38.9672 24.625C38.9672 27.675 38.3339 29.8917 37.0672 31.275C35.8005 32.6417 33.7755 33.325 30.9922 33.325C28.2255 33.325 26.2005 32.6333 24.9172 31.25C23.6505 29.8667 23.0172 27.6583 23.0172 24.625C23.0172 21.575 23.6505 19.3667 24.9172 18C26.1839 16.6167 28.2089 15.925 30.9922 15.925C33.7755 15.925 35.8005 16.6167 37.0672 18C38.3339 19.3667 38.9672 21.575 38.9672 24.625ZM41.3652 33V16.25H47.0652L50.9152 22.6H51.2652V16.25H57.0652V33H51.3402L47.5402 26.175H47.1652V33H41.3652ZM59.8271 33V16.25H65.5271L69.3771 22.6H69.7271V16.25H75.5271V33H69.8021L66.0021 26.175H65.6271V33H59.8271ZM78.2891 33V16.25H90.8391V20.875H84.0891V22.3H89.3391V26.875H84.0891V28.375H90.8391V33H78.2891ZM105.363 32.675C103.596 33.1083 101.788 33.325 99.9377 33.325C98.0877 33.325 96.6627 33.0667 95.6627 32.55C94.6627 32.0167 93.9377 31.1333 93.4877 29.9C93.0544 28.6667 92.8377 26.8917 92.8377 24.575C92.8377 21.2583 93.346 18.9917 94.3627 17.775C95.396 16.5417 97.3544 15.925 100.238 15.925C101.438 15.925 102.854 16.0917 104.488 16.425L105.363 16.6L105.213 21.075C103.846 20.9083 102.579 20.825 101.413 20.825C100.263 20.825 99.521 21.05 99.1877 21.5C98.8544 21.9333 98.6877 22.8417 98.6877 24.225C98.6877 25.6083 98.7627 26.5667 98.9127 27.1C99.0794 27.6333 99.3377 27.9917 99.6877 28.175C100.038 28.3417 100.604 28.425 101.388 28.425L105.288 28.275L105.363 32.675ZM107.193 20.975V16.25H119.693V20.975H116.443V33H110.643V20.975H107.193Z" fill="#404040"/>
<path d="M92.688 8.728H92.192V11H88.48V0.28H92.688C94.384 0.28 95.616 0.573333 96.384 1.16C97.1627 1.74667 97.552 2.85067 97.552 4.472C97.552 6.08267 97.1627 7.19733 96.384 7.816C95.6053 8.424 94.3733 8.728 92.688 8.728ZM92.192 5.8H92.528C92.9867 5.8 93.312 5.69867 93.504 5.496C93.7067 5.29333 93.808 4.94667 93.808 4.456C93.808 3.96533 93.712 3.63467 93.52 3.464C93.3387 3.29333 93.008 3.208 92.528 3.208H92.192V5.8ZM102.503 5.64C102.503 6.54667 102.588 7.20267 102.759 7.608C102.94 8.00267 103.308 8.2 103.863 8.2C104.428 8.2 104.796 8.00267 104.967 7.608C105.138 7.21333 105.223 6.55733 105.223 5.64C105.223 4.712 105.138 4.056 104.967 3.672C104.807 3.27733 104.444 3.08 103.879 3.08C103.314 3.08 102.94 3.28267 102.759 3.688C102.588 4.08267 102.503 4.73333 102.503 5.64ZM108.967 5.64C108.967 7.592 108.562 9.01067 107.751 9.896C106.94 10.7707 105.644 11.208 103.863 11.208C102.092 11.208 100.796 10.7653 99.9751 9.88C99.1645 8.99467 98.7591 7.58133 98.7591 5.64C98.7591 3.688 99.1645 2.27467 99.9751 1.4C100.786 0.514666 102.082 0.0719995 103.863 0.0719995C105.644 0.0719995 106.94 0.514666 107.751 1.4C108.562 2.27467 108.967 3.688 108.967 5.64ZM118.662 3.368C117.158 3.208 116.065 3.128 115.382 3.128C114.699 3.128 114.299 3.14933 114.182 3.192C114.075 3.224 114.022 3.29867 114.022 3.416C114.022 3.53333 114.086 3.624 114.214 3.688C114.342 3.752 114.742 3.85867 115.414 4.008C116.097 4.15733 116.651 4.30667 117.078 4.456C117.515 4.59467 117.905 4.79733 118.246 5.064C118.598 5.32 118.827 5.64 118.934 6.024C119.051 6.39733 119.11 6.904 119.11 7.544C119.11 8.86667 118.758 9.81067 118.054 10.376C117.35 10.9413 116.289 11.224 114.87 11.224C114.187 11.224 113.467 11.176 112.71 11.08C111.963 10.984 111.387 10.888 110.982 10.792L110.358 10.648L110.518 7.816C112.15 8.05067 113.489 8.168 114.534 8.168C115.089 8.168 115.366 8.04533 115.366 7.8C115.366 7.69333 115.302 7.61867 115.174 7.576C115.046 7.52267 114.699 7.45333 114.134 7.368C112.641 7.13333 111.622 6.77067 111.078 6.28C110.545 5.77867 110.278 4.96267 110.278 3.832C110.278 2.392 110.625 1.40533 111.318 0.872C112.011 0.338666 113.078 0.0719995 114.518 0.0719995C115.531 0.0719995 116.721 0.173333 118.086 0.375999L118.758 0.488L118.662 3.368Z" fill="#0163FD"/>
</svg>
