<svg width="48" height="8" viewBox="0 0 48 8" fill="none" xmlns="http://www.w3.org/2000/svg">
<path d="M0.28 7V1.95H2.52V7H0.28ZM0.27 1.63V0.0999994H2.53V1.63H0.27ZM8.49273 6.87C7.78607 7.04333 7.06273 7.13 6.32273 7.13C5.58273 7.13 5.01273 7.02667 4.61273 6.82C4.21273 6.60667 3.92273 6.25333 3.74273 5.76C3.5694 5.26667 3.48273 4.55667 3.48273 3.63C3.48273 2.30333 3.68607 1.39667 4.09273 0.91C4.50607 0.416666 5.2894 0.17 6.44273 0.17C6.92273 0.17 7.4894 0.236666 8.14273 0.37L8.49273 0.44L8.43273 2.23C7.88607 2.16333 7.3794 2.13 6.91273 2.13C6.45273 2.13 6.15607 2.22 6.02273 2.4C5.8894 2.57333 5.82273 2.93667 5.82273 3.49C5.82273 4.04333 5.85273 4.42667 5.91273 4.64C5.9794 4.85333 6.08273 4.99667 6.22273 5.07C6.36273 5.13667 6.5894 5.17 6.90273 5.17L8.46273 5.11L8.49273 6.87ZM11.5469 3.65C11.5469 4.21667 11.6002 4.62667 11.7069 4.88C11.8202 5.12667 12.0502 5.25 12.3969 5.25C12.7502 5.25 12.9802 5.12667 13.0869 4.88C13.1935 4.63333 13.2469 4.22333 13.2469 3.65C13.2469 3.07 13.1935 2.66 13.0869 2.42C12.9869 2.17333 12.7602 2.05 12.4069 2.05C12.0535 2.05 11.8202 2.17667 11.7069 2.43C11.6002 2.67667 11.5469 3.08333 11.5469 3.65ZM15.5869 3.65C15.5869 4.87 15.3335 5.75667 14.8269 6.31C14.3202 6.85667 13.5102 7.13 12.3969 7.13C11.2902 7.13 10.4802 6.85333 9.96688 6.3C9.46021 5.74667 9.20688 4.86333 9.20688 3.65C9.20688 2.43 9.46021 1.54667 9.96688 1C10.4735 0.446666 11.2835 0.17 12.3969 0.17C13.5102 0.17 14.3202 0.446666 14.8269 1C15.3335 1.54667 15.5869 2.43 15.5869 3.65ZM16.5461 7V0.3H18.8261L20.3661 2.84H20.5061V0.3H22.8261V7H20.5361L19.0161 4.27H18.8661V7H16.5461ZM23.9309 7V0.3H26.2109L27.7509 2.84H27.8909V0.3H30.2109V7H27.9209L26.4009 4.27H26.2509V7H23.9309ZM31.3156 7V0.3H36.3356V2.15H33.6356V2.72H35.7356V4.55H33.6356V5.15H36.3356V7H31.3156ZM42.1451 6.87C41.4384 7.04333 40.7151 7.13 39.9751 7.13C39.2351 7.13 38.6651 7.02667 38.2651 6.82C37.8651 6.60667 37.5751 6.25333 37.3951 5.76C37.2217 5.26667 37.1351 4.55667 37.1351 3.63C37.1351 2.30333 37.3384 1.39667 37.7451 0.91C38.1584 0.416666 38.9417 0.17 40.0951 0.17C40.5751 0.17 41.1417 0.236666 41.7951 0.37L42.1451 0.44L42.0851 2.23C41.5384 2.16333 41.0317 2.13 40.5651 2.13C40.1051 2.13 39.8084 2.22 39.6751 2.4C39.5417 2.57333 39.4751 2.93667 39.4751 3.49C39.4751 4.04333 39.5051 4.42667 39.5651 4.64C39.6317 4.85333 39.7351 4.99667 39.8751 5.07C40.0151 5.13667 40.2417 5.17 40.5551 5.17L42.1151 5.11L42.1451 6.87ZM42.8771 2.19V0.3H47.8771V2.19H46.5771V7H44.2571V2.19H42.8771Z" fill="#404040"/>
</svg>
