<svg width="120" height="35" viewBox="0 0 120 35" fill="none" xmlns="http://www.w3.org/2000/svg">
<path d="M0.7 34V21.375H6.3V34H0.7ZM0.675 20.575V16.75H6.325V20.575H0.675ZM21.2318 33.675C19.4652 34.1083 17.6568 34.325 15.8068 34.325C13.9568 34.325 12.5318 34.0667 11.5318 33.55C10.5318 33.0167 9.80684 32.1333 9.35684 30.9C8.9235 29.6667 8.70684 27.8917 8.70684 25.575C8.70684 22.2583 9.21517 19.9917 10.2318 18.775C11.2652 17.5417 13.2235 16.925 16.1068 16.925C17.3068 16.925 18.7235 17.0917 20.3568 17.425L21.2318 17.6L21.0818 22.075C19.7152 21.9083 18.4485 21.825 17.2818 21.825C16.1318 21.825 15.3902 22.05 15.0568 22.5C14.7235 22.9333 14.5568 23.8417 14.5568 25.225C14.5568 26.6083 14.6318 27.5667 14.7818 28.1C14.9485 28.6333 15.2068 28.9917 15.5568 29.175C15.9068 29.3417 16.4735 29.425 17.2568 29.425L21.1568 29.275L21.2318 33.675ZM28.8672 25.625C28.8672 27.0417 29.0005 28.0667 29.2672 28.7C29.5505 29.3167 30.1255 29.625 30.9922 29.625C31.8755 29.625 32.4505 29.3167 32.7172 28.7C32.9839 28.0833 33.1172 27.0583 33.1172 25.625C33.1172 24.175 32.9839 23.15 32.7172 22.55C32.4672 21.9333 31.9005 21.625 31.0172 21.625C30.1339 21.625 29.5505 21.9417 29.2672 22.575C29.0005 23.1917 28.8672 24.2083 28.8672 25.625ZM38.9672 25.625C38.9672 28.675 38.3339 30.8917 37.0672 32.275C35.8005 33.6417 33.7755 34.325 30.9922 34.325C28.2255 34.325 26.2005 33.6333 24.9172 32.25C23.6505 30.8667 23.0172 28.6583 23.0172 25.625C23.0172 22.575 23.6505 20.3667 24.9172 19C26.1839 17.6167 28.2089 16.925 30.9922 16.925C33.7755 16.925 35.8005 17.6167 37.0672 19C38.3339 20.3667 38.9672 22.575 38.9672 25.625ZM41.3652 34V17.25H47.0652L50.9152 23.6H51.2652V17.25H57.0652V34H51.3402L47.5402 27.175H47.1652V34H41.3652ZM59.8271 34V17.25H65.5271L69.3771 23.6H69.7271V17.25H75.5271V34H69.8021L66.0021 27.175H65.6271V34H59.8271ZM78.2891 34V17.25H90.8391V21.875H84.0891V23.3H89.3391V27.875H84.0891V29.375H90.8391V34H78.2891ZM105.363 33.675C103.596 34.1083 101.788 34.325 99.9377 34.325C98.0877 34.325 96.6627 34.0667 95.6627 33.55C94.6627 33.0167 93.9377 32.1333 93.4877 30.9C93.0544 29.6667 92.8377 27.8917 92.8377 25.575C92.8377 22.2583 93.346 19.9917 94.3627 18.775C95.396 17.5417 97.3544 16.925 100.238 16.925C101.438 16.925 102.854 17.0917 104.488 17.425L105.363 17.6L105.213 22.075C103.846 21.9083 102.579 21.825 101.413 21.825C100.263 21.825 99.521 22.05 99.1877 22.5C98.8544 22.9333 98.6877 23.8417 98.6877 25.225C98.6877 26.6083 98.7627 27.5667 98.9127 28.1C99.0794 28.6333 99.3377 28.9917 99.6877 29.175C100.038 29.3417 100.604 29.425 101.388 29.425L105.288 29.275L105.363 33.675ZM107.193 21.975V17.25H119.693V21.975H116.443V34H110.643V21.975H107.193Z" fill="#0163FD"/>
<path d="M84.2389 11.16H83.6189V14H78.9789V0.6H84.2389C86.3589 0.6 87.8989 0.966666 88.8589 1.7C89.8322 2.43333 90.3189 3.81333 90.3189 5.84C90.3189 7.85333 89.8322 9.24667 88.8589 10.02C87.8856 10.78 86.3456 11.16 84.2389 11.16ZM83.6189 7.5H84.0389C84.6122 7.5 85.0189 7.37333 85.2589 7.12C85.5122 6.86667 85.6389 6.43333 85.6389 5.82C85.6389 5.20667 85.5189 4.79333 85.2789 4.58C85.0522 4.36667 84.6389 4.26 84.0389 4.26H83.6189V7.5ZM96.5078 7.3C96.5078 8.43333 96.6145 9.25333 96.8278 9.76C97.0545 10.2533 97.5145 10.5 98.2078 10.5C98.9145 10.5 99.3745 10.2533 99.5878 9.76C99.8011 9.26667 99.9078 8.44667 99.9078 7.3C99.9078 6.14 99.8011 5.32 99.5878 4.84C99.3878 4.34667 98.9345 4.1 98.2278 4.1C97.5211 4.1 97.0545 4.35333 96.8278 4.86C96.6145 5.35333 96.5078 6.16667 96.5078 7.3ZM104.588 7.3C104.588 9.74 104.081 11.5133 103.068 12.62C102.054 13.7133 100.434 14.26 98.2078 14.26C95.9945 14.26 94.3745 13.7067 93.3478 12.6C92.3345 11.4933 91.8278 9.72667 91.8278 7.3C91.8278 4.86 92.3345 3.09333 93.3478 2C94.3611 0.893333 95.9811 0.339999 98.2078 0.339999C100.434 0.339999 102.054 0.893333 103.068 2C104.081 3.09333 104.588 4.86 104.588 7.3ZM116.706 4.46C114.826 4.26 113.46 4.16 112.606 4.16C111.753 4.16 111.253 4.18667 111.106 4.24C110.973 4.28 110.906 4.37333 110.906 4.52C110.906 4.66667 110.986 4.78 111.146 4.86C111.306 4.94 111.806 5.07333 112.646 5.26C113.5 5.44667 114.193 5.63333 114.726 5.82C115.273 5.99333 115.76 6.24667 116.186 6.58C116.626 6.9 116.913 7.3 117.046 7.78C117.193 8.24667 117.266 8.88 117.266 9.68C117.266 11.3333 116.826 12.5133 115.946 13.22C115.066 13.9267 113.74 14.28 111.966 14.28C111.113 14.28 110.213 14.22 109.266 14.1C108.333 13.98 107.613 13.86 107.106 13.74L106.326 13.56L106.526 10.02C108.566 10.3133 110.24 10.46 111.546 10.46C112.24 10.46 112.586 10.3067 112.586 10C112.586 9.86667 112.506 9.77333 112.346 9.72C112.186 9.65333 111.753 9.56667 111.046 9.46C109.18 9.16667 107.906 8.71333 107.226 8.1C106.56 7.47333 106.226 6.45333 106.226 5.04C106.226 3.24 106.66 2.00667 107.526 1.34C108.393 0.673333 109.726 0.339999 111.526 0.339999C112.793 0.339999 114.28 0.466666 115.986 0.719999L116.826 0.86L116.706 4.46Z" fill="#414141"/>
</svg>
