<svg width="150" height="61" viewBox="0 0 150 61" fill="none" xmlns="http://www.w3.org/2000/svg">
<mask id="path-1-outside-1_9072_32116" maskUnits="userSpaceOnUse" x="8" y="15.72" width="142" height="33" fill="black">
<rect fill="white" x="8" y="15.72" width="142" height="33"/>
<path d="M24.068 46.993C21.78 46.993 19.739 46.603 17.945 45.823C16.177 45.043 14.669 43.977 13.421 42.625C12.199 41.247 11.263 39.687 10.613 37.945C9.989 36.177 9.677 34.305 9.677 32.329C9.677 30.171 10.028 28.195 10.73 26.401C11.458 24.607 12.472 23.06 13.772 21.76C15.072 20.434 16.619 19.407 18.413 18.679C20.207 17.951 22.183 17.587 24.341 17.587C25.745 17.587 26.993 17.73 28.085 18.016C29.177 18.302 30.074 18.627 30.776 18.991C31.478 19.329 31.92 19.602 32.102 19.81L30.191 23.71C29.489 23.086 28.618 22.579 27.578 22.189C26.564 21.799 25.368 21.604 23.99 21.604C22.196 21.604 20.571 22.046 19.115 22.93C17.685 23.814 16.541 25.062 15.683 26.674C14.851 28.286 14.435 30.197 14.435 32.407C14.435 34.357 14.799 36.138 15.527 37.75C16.255 39.336 17.321 40.61 18.725 41.572C20.155 42.534 21.884 43.015 23.912 43.015C25.03 43.015 26.122 42.872 27.188 42.586C28.28 42.274 29.398 41.767 30.542 41.065L31.829 44.77C31.491 45.082 30.919 45.42 30.113 45.784C29.307 46.122 28.371 46.408 27.305 46.642C26.265 46.876 25.186 46.993 24.068 46.993ZM42.6902 47.11C40.8182 47.11 39.1672 46.694 37.7372 45.862C36.3332 45.03 35.2412 43.899 34.4612 42.469C33.6812 41.039 33.2912 39.453 33.2912 37.711C33.2912 35.995 33.6682 34.435 34.4222 33.031C35.2022 31.601 36.2942 30.47 37.6982 29.638C39.1022 28.78 40.7662 28.351 42.6902 28.351C44.6142 28.351 46.2782 28.78 47.6822 29.638C49.0862 30.47 50.1652 31.601 50.9192 33.031C51.6732 34.435 52.0502 35.995 52.0502 37.711C52.0502 39.453 51.6602 41.039 50.8802 42.469C50.1262 43.899 49.0472 45.03 47.6432 45.862C46.2392 46.694 44.5882 47.11 42.6902 47.11ZM42.8072 43.678C44.3672 43.678 45.5632 43.106 46.3952 41.962C47.2532 40.818 47.6822 39.427 47.6822 37.789C47.6822 36.671 47.4742 35.67 47.0582 34.786C46.6422 33.876 46.0442 33.148 45.2642 32.602C44.5102 32.056 43.6132 31.783 42.5732 31.783C41.5592 31.783 40.6882 32.056 39.9602 32.602C39.2322 33.148 38.6602 33.876 38.2442 34.786C37.8542 35.67 37.6592 36.671 37.6592 37.789C37.6592 38.881 37.8802 39.882 38.3222 40.792C38.7642 41.676 39.3622 42.378 40.1162 42.898C40.8962 43.418 41.7932 43.678 42.8072 43.678ZM56.1674 46.72V28.819H60.3014L60.3404 32.095C60.8084 31.029 61.5624 30.145 62.6024 29.443C63.6684 28.715 64.9424 28.351 66.4244 28.351C68.3484 28.351 69.7914 28.754 70.7534 29.56C71.7154 30.34 72.3524 31.458 72.6644 32.914C73.0024 34.37 73.1714 36.099 73.1714 38.101V46.72H68.9594V38.218C68.9594 36.138 68.7514 34.552 68.3354 33.46C67.9454 32.368 67.0224 31.822 65.5664 31.822C64.8124 31.822 64.0324 32.056 63.2264 32.524C62.4204 32.992 61.7444 33.668 61.1984 34.552C60.6524 35.436 60.3794 36.528 60.3794 37.828V46.72H56.1674ZM78.0669 46.72V28.819H82.2009L82.2399 32.095C82.7079 31.029 83.4619 30.145 84.5019 29.443C85.5679 28.715 86.8419 28.351 88.3239 28.351C90.2479 28.351 91.6909 28.754 92.6529 29.56C93.6149 30.34 94.2519 31.458 94.5639 32.914C94.9019 34.37 95.0709 36.099 95.0709 38.101V46.72H90.8589V38.218C90.8589 36.138 90.6509 34.552 90.2349 33.46C89.8449 32.368 88.9219 31.822 87.4659 31.822C86.7119 31.822 85.9319 32.056 85.1259 32.524C84.3199 32.992 83.6439 33.668 83.0979 34.552C82.5519 35.436 82.2789 36.528 82.2789 37.828V46.72H78.0669ZM108.582 47.11C106.346 47.11 104.526 46.681 103.122 45.823C101.718 44.939 100.691 43.782 100.041 42.352C99.3906 40.922 99.0656 39.401 99.0656 37.789C99.0656 35.839 99.4556 34.162 100.236 32.758C101.042 31.354 102.147 30.275 103.551 29.521C104.955 28.741 106.541 28.351 108.309 28.351C111.143 28.351 113.21 29.144 114.51 30.73C115.81 32.29 116.46 34.396 116.46 37.048C116.46 37.75 116.421 38.478 116.343 39.232H103.473C103.759 40.844 104.331 42.001 105.189 42.703C106.073 43.379 107.243 43.717 108.699 43.717C110.103 43.717 111.208 43.587 112.014 43.327C112.82 43.067 113.483 42.807 114.003 42.547L115.29 45.55C114.77 45.888 113.964 46.239 112.872 46.603C111.78 46.941 110.35 47.11 108.582 47.11ZM103.473 36.307H112.365C112.391 34.617 112.014 33.46 111.234 32.836C110.454 32.212 109.44 31.9 108.192 31.9C106.892 31.9 105.826 32.251 104.994 32.953C104.188 33.629 103.681 34.747 103.473 36.307ZM129.221 47.11C127.479 47.11 125.893 46.733 124.463 45.979C123.059 45.225 121.928 44.133 121.07 42.703C120.238 41.273 119.822 39.557 119.822 37.555C119.822 35.683 120.199 34.058 120.953 32.68C121.733 31.302 122.812 30.236 124.19 29.482C125.594 28.728 127.206 28.351 129.026 28.351C130.534 28.351 131.769 28.546 132.731 28.936C133.719 29.326 134.46 29.742 134.954 30.184L133.082 33.577C132.978 33.447 132.77 33.252 132.458 32.992C132.146 32.732 131.73 32.498 131.21 32.29C130.716 32.056 130.105 31.939 129.377 31.939C127.661 31.939 126.374 32.459 125.516 33.499C124.684 34.539 124.268 35.878 124.268 37.516C124.268 39.414 124.71 40.909 125.594 42.001C126.504 43.067 127.765 43.6 129.377 43.6C130.235 43.6 131.041 43.483 131.795 43.249C132.549 42.989 133.121 42.716 133.511 42.43L135.032 45.394C134.564 45.758 133.823 46.135 132.809 46.525C131.795 46.915 130.599 47.11 129.221 47.11ZM140.602 46.72V32.251H137.443V28.819H140.602V21.526L144.853 20.59V28.819H148.987V32.251H144.853V46.72H140.602Z"/>
</mask>
<path d="M24.068 46.993C21.78 46.993 19.739 46.603 17.945 45.823C16.177 45.043 14.669 43.977 13.421 42.625C12.199 41.247 11.263 39.687 10.613 37.945C9.989 36.177 9.677 34.305 9.677 32.329C9.677 30.171 10.028 28.195 10.73 26.401C11.458 24.607 12.472 23.06 13.772 21.76C15.072 20.434 16.619 19.407 18.413 18.679C20.207 17.951 22.183 17.587 24.341 17.587C25.745 17.587 26.993 17.73 28.085 18.016C29.177 18.302 30.074 18.627 30.776 18.991C31.478 19.329 31.92 19.602 32.102 19.81L30.191 23.71C29.489 23.086 28.618 22.579 27.578 22.189C26.564 21.799 25.368 21.604 23.99 21.604C22.196 21.604 20.571 22.046 19.115 22.93C17.685 23.814 16.541 25.062 15.683 26.674C14.851 28.286 14.435 30.197 14.435 32.407C14.435 34.357 14.799 36.138 15.527 37.75C16.255 39.336 17.321 40.61 18.725 41.572C20.155 42.534 21.884 43.015 23.912 43.015C25.03 43.015 26.122 42.872 27.188 42.586C28.28 42.274 29.398 41.767 30.542 41.065L31.829 44.77C31.491 45.082 30.919 45.42 30.113 45.784C29.307 46.122 28.371 46.408 27.305 46.642C26.265 46.876 25.186 46.993 24.068 46.993ZM42.6902 47.11C40.8182 47.11 39.1672 46.694 37.7372 45.862C36.3332 45.03 35.2412 43.899 34.4612 42.469C33.6812 41.039 33.2912 39.453 33.2912 37.711C33.2912 35.995 33.6682 34.435 34.4222 33.031C35.2022 31.601 36.2942 30.47 37.6982 29.638C39.1022 28.78 40.7662 28.351 42.6902 28.351C44.6142 28.351 46.2782 28.78 47.6822 29.638C49.0862 30.47 50.1652 31.601 50.9192 33.031C51.6732 34.435 52.0502 35.995 52.0502 37.711C52.0502 39.453 51.6602 41.039 50.8802 42.469C50.1262 43.899 49.0472 45.03 47.6432 45.862C46.2392 46.694 44.5882 47.11 42.6902 47.11ZM42.8072 43.678C44.3672 43.678 45.5632 43.106 46.3952 41.962C47.2532 40.818 47.6822 39.427 47.6822 37.789C47.6822 36.671 47.4742 35.67 47.0582 34.786C46.6422 33.876 46.0442 33.148 45.2642 32.602C44.5102 32.056 43.6132 31.783 42.5732 31.783C41.5592 31.783 40.6882 32.056 39.9602 32.602C39.2322 33.148 38.6602 33.876 38.2442 34.786C37.8542 35.67 37.6592 36.671 37.6592 37.789C37.6592 38.881 37.8802 39.882 38.3222 40.792C38.7642 41.676 39.3622 42.378 40.1162 42.898C40.8962 43.418 41.7932 43.678 42.8072 43.678ZM56.1674 46.72V28.819H60.3014L60.3404 32.095C60.8084 31.029 61.5624 30.145 62.6024 29.443C63.6684 28.715 64.9424 28.351 66.4244 28.351C68.3484 28.351 69.7914 28.754 70.7534 29.56C71.7154 30.34 72.3524 31.458 72.6644 32.914C73.0024 34.37 73.1714 36.099 73.1714 38.101V46.72H68.9594V38.218C68.9594 36.138 68.7514 34.552 68.3354 33.46C67.9454 32.368 67.0224 31.822 65.5664 31.822C64.8124 31.822 64.0324 32.056 63.2264 32.524C62.4204 32.992 61.7444 33.668 61.1984 34.552C60.6524 35.436 60.3794 36.528 60.3794 37.828V46.72H56.1674ZM78.0669 46.72V28.819H82.2009L82.2399 32.095C82.7079 31.029 83.4619 30.145 84.5019 29.443C85.5679 28.715 86.8419 28.351 88.3239 28.351C90.2479 28.351 91.6909 28.754 92.6529 29.56C93.6149 30.34 94.2519 31.458 94.5639 32.914C94.9019 34.37 95.0709 36.099 95.0709 38.101V46.72H90.8589V38.218C90.8589 36.138 90.6509 34.552 90.2349 33.46C89.8449 32.368 88.9219 31.822 87.4659 31.822C86.7119 31.822 85.9319 32.056 85.1259 32.524C84.3199 32.992 83.6439 33.668 83.0979 34.552C82.5519 35.436 82.2789 36.528 82.2789 37.828V46.72H78.0669ZM108.582 47.11C106.346 47.11 104.526 46.681 103.122 45.823C101.718 44.939 100.691 43.782 100.041 42.352C99.3906 40.922 99.0656 39.401 99.0656 37.789C99.0656 35.839 99.4556 34.162 100.236 32.758C101.042 31.354 102.147 30.275 103.551 29.521C104.955 28.741 106.541 28.351 108.309 28.351C111.143 28.351 113.21 29.144 114.51 30.73C115.81 32.29 116.46 34.396 116.46 37.048C116.46 37.75 116.421 38.478 116.343 39.232H103.473C103.759 40.844 104.331 42.001 105.189 42.703C106.073 43.379 107.243 43.717 108.699 43.717C110.103 43.717 111.208 43.587 112.014 43.327C112.82 43.067 113.483 42.807 114.003 42.547L115.29 45.55C114.77 45.888 113.964 46.239 112.872 46.603C111.78 46.941 110.35 47.11 108.582 47.11ZM103.473 36.307H112.365C112.391 34.617 112.014 33.46 111.234 32.836C110.454 32.212 109.44 31.9 108.192 31.9C106.892 31.9 105.826 32.251 104.994 32.953C104.188 33.629 103.681 34.747 103.473 36.307ZM129.221 47.11C127.479 47.11 125.893 46.733 124.463 45.979C123.059 45.225 121.928 44.133 121.07 42.703C120.238 41.273 119.822 39.557 119.822 37.555C119.822 35.683 120.199 34.058 120.953 32.68C121.733 31.302 122.812 30.236 124.19 29.482C125.594 28.728 127.206 28.351 129.026 28.351C130.534 28.351 131.769 28.546 132.731 28.936C133.719 29.326 134.46 29.742 134.954 30.184L133.082 33.577C132.978 33.447 132.77 33.252 132.458 32.992C132.146 32.732 131.73 32.498 131.21 32.29C130.716 32.056 130.105 31.939 129.377 31.939C127.661 31.939 126.374 32.459 125.516 33.499C124.684 34.539 124.268 35.878 124.268 37.516C124.268 39.414 124.71 40.909 125.594 42.001C126.504 43.067 127.765 43.6 129.377 43.6C130.235 43.6 131.041 43.483 131.795 43.249C132.549 42.989 133.121 42.716 133.511 42.43L135.032 45.394C134.564 45.758 133.823 46.135 132.809 46.525C131.795 46.915 130.599 47.11 129.221 47.11ZM140.602 46.72V32.251H137.443V28.819H140.602V21.526L144.853 20.59V28.819H148.987V32.251H144.853V46.72H140.602Z" fill="#404040"/>
<path d="M17.945 45.823L17.5414 46.7379L17.5463 46.7401L17.945 45.823ZM13.421 42.625L12.6728 43.2885L12.6794 43.296L12.6862 43.3033L13.421 42.625ZM10.613 37.945L9.67001 38.2778L9.67298 38.2862L9.6761 38.2946L10.613 37.945ZM10.73 26.401L9.80331 26.025L9.79876 26.0366L10.73 26.401ZM13.772 21.76L14.4791 22.4671L14.4861 22.4601L13.772 21.76ZM28.085 18.016L28.3384 17.0486L28.3384 17.0486L28.085 18.016ZM30.776 18.991L30.3157 19.8788L30.3288 19.8856L30.3422 19.892L30.776 18.991ZM32.102 19.81L33 20.25L33.2928 19.6524L32.8546 19.1515L32.102 19.81ZM30.191 23.71L29.5266 24.4574L30.51 25.3315L31.089 24.15L30.191 23.71ZM27.578 22.189L27.219 23.1224L27.2269 23.1253L27.578 22.189ZM19.115 22.93L18.596 22.0752L18.5892 22.0794L19.115 22.93ZM15.683 26.674L14.8002 26.2041L14.7944 26.2154L15.683 26.674ZM15.527 37.75L14.6156 38.1616L14.6182 38.1672L15.527 37.75ZM18.725 41.572L18.1597 42.397L18.1668 42.4017L18.725 41.572ZM27.188 42.586L27.4471 43.5518L27.4549 43.5497L27.4627 43.5475L27.188 42.586ZM30.542 41.065L31.4866 40.7369L31.0787 39.5624L30.019 40.2127L30.542 41.065ZM31.829 44.77L32.5073 45.5048L32.9885 45.0606L32.7736 44.4419L31.829 44.77ZM30.113 45.784L30.4997 46.7062L30.5122 46.701L30.5246 46.6954L30.113 45.784ZM27.305 46.642L27.0906 45.6652L27.0855 45.6664L27.305 46.642ZM24.068 46.993V45.993C21.8942 45.993 19.9924 45.6227 18.3437 44.9059L17.945 45.823L17.5463 46.7401C19.4856 47.5833 21.6658 47.993 24.068 47.993V46.993ZM17.945 45.823L18.3486 44.9081C16.6997 44.1806 15.3062 43.1929 14.1558 41.9467L13.421 42.625L12.6862 43.3033C14.0318 44.7611 15.6543 45.9054 17.5414 46.7379L17.945 45.823ZM13.421 42.625L14.1692 41.9615C13.0297 40.6765 12.1573 39.2232 11.5499 37.5954L10.613 37.945L9.6761 38.2946C10.3687 40.1508 11.3683 41.8175 12.6728 43.2885L13.421 42.625ZM10.613 37.945L11.556 37.6122C10.9717 35.9567 10.677 34.1978 10.677 32.329H9.677H8.677C8.677 34.4122 9.00628 36.3973 9.67001 38.2778L10.613 37.945ZM9.677 32.329H10.677C10.677 30.2808 11.0098 28.4302 11.6612 26.7654L10.73 26.401L9.79876 26.0366C9.04618 27.9599 8.677 30.0612 8.677 32.329H9.677ZM10.73 26.401L11.6566 26.777C12.337 25.1003 13.2787 23.6676 14.4791 22.4671L13.772 21.76L13.0649 21.0529C11.6653 22.4524 10.579 24.1137 9.80339 26.025L10.73 26.401ZM13.772 21.76L14.4861 22.4601C15.686 21.2361 17.1165 20.2843 18.789 19.6056L18.413 18.679L18.037 17.7524C16.1215 18.5297 14.458 19.6319 13.0579 21.0599L13.772 21.76ZM18.413 18.679L18.789 19.6056C20.4506 18.9313 22.2971 18.587 24.341 18.587V17.587V16.587C22.0689 16.587 19.9634 16.9707 18.037 17.7524L18.413 18.679ZM24.341 17.587V18.587C25.6793 18.587 26.8396 18.7235 27.8316 18.9834L28.085 18.016L28.3384 17.0486C27.1464 16.7365 25.8107 16.587 24.341 16.587V17.587ZM28.085 18.016L27.8316 18.9834C28.8797 19.2579 29.7008 19.5599 30.3157 19.8788L30.776 18.991L31.2363 18.1032C30.4472 17.6941 29.4743 17.3461 28.3384 17.0486L28.085 18.016ZM30.776 18.991L30.3422 19.892C30.6756 20.0525 30.9279 20.1885 31.1085 20.3C31.3054 20.4216 31.3586 20.479 31.3494 20.4685L32.102 19.81L32.8546 19.1515C32.6634 18.933 32.4046 18.7499 32.1595 18.5985C31.8981 18.437 31.5784 18.2675 31.2098 18.09L30.776 18.991ZM32.102 19.81L31.204 19.37L29.293 23.27L30.191 23.71L31.089 24.15L33 20.25L32.102 19.81ZM30.191 23.71L30.8554 22.9626C30.0463 22.2435 29.0637 21.6781 27.9291 21.2527L27.578 22.189L27.2269 23.1253C28.1723 23.4799 28.9317 23.9285 29.5266 24.4574L30.191 23.71ZM27.578 22.189L27.937 21.2557C26.7823 20.8115 25.4592 20.604 23.99 20.604V21.604V22.604C25.2768 22.604 26.3457 22.7865 27.219 23.1223L27.578 22.189ZM23.99 21.604V20.604C22.0232 20.604 20.2169 21.0911 18.596 22.0752L19.115 22.93L19.634 23.7848C20.9251 23.0009 22.3689 22.604 23.99 22.604V21.604ZM19.115 22.93L18.5892 22.0794C16.9957 23.0644 15.734 24.4498 14.8003 26.2042L15.683 26.674L16.5657 27.1439C17.348 25.6742 18.3743 24.5636 19.6408 23.7806L19.115 22.93ZM15.683 26.674L14.7944 26.2154C13.8749 27.9969 13.435 30.0718 13.435 32.407H14.435H15.435C15.435 30.3222 15.8271 28.5751 16.5716 27.1326L15.683 26.674ZM14.435 32.407H13.435C13.435 34.4843 13.8235 36.4075 14.6156 38.1616L15.527 37.75L16.4384 37.3384C15.7745 35.8685 15.435 34.2297 15.435 32.407H14.435ZM15.527 37.75L14.6182 38.1672C15.4197 39.9133 16.6025 41.3299 18.1598 42.3969L18.725 41.572L19.2902 40.7471C18.0395 39.8901 17.0903 38.7587 16.4358 37.3328L15.527 37.75ZM18.725 41.572L18.1668 42.4017C19.7893 43.4932 21.7211 44.015 23.912 44.015V43.015V42.015C22.0469 42.015 20.5207 41.5748 19.2832 40.7423L18.725 41.572ZM23.912 43.015V44.015C25.1164 44.015 26.2955 43.8608 27.4471 43.5518L27.188 42.586L26.9289 41.6202C25.9485 41.8832 24.9436 42.015 23.912 42.015V43.015ZM27.188 42.586L27.4627 43.5475C28.6562 43.2065 29.8572 42.6585 31.065 41.9173L30.542 41.065L30.019 40.2127C28.9388 40.8755 27.9038 41.3415 26.9133 41.6245L27.188 42.586ZM30.542 41.065L29.5974 41.3931L30.8844 45.0981L31.829 44.77L32.7736 44.4419L31.4866 40.7369L30.542 41.065ZM31.829 44.77L31.1507 44.0352C30.9343 44.235 30.4824 44.5199 29.7014 44.8726L30.113 45.784L30.5246 46.6954C31.3556 46.3201 32.0477 45.929 32.5073 45.5048L31.829 44.77ZM30.113 45.784L29.7263 44.8618C28.9877 45.1716 28.1115 45.4412 27.0906 45.6653L27.305 46.642L27.5194 47.6187C28.6305 47.3748 29.6263 47.0725 30.4997 46.7062L30.113 45.784ZM27.305 46.642L27.0855 45.6664C26.121 45.8834 25.1157 45.993 24.068 45.993V46.993V47.993C25.2563 47.993 26.409 47.8686 27.5245 47.6176L27.305 46.642ZM37.7372 45.862L37.2274 46.7223L37.2343 46.7263L37.7372 45.862ZM34.4612 42.469L33.5833 42.9479L33.5833 42.9479L34.4612 42.469ZM34.4222 33.031L33.5443 32.5521L33.5412 32.5579L34.4222 33.031ZM37.6982 29.638L38.208 30.4984L38.2196 30.4913L37.6982 29.638ZM47.6822 29.638L47.1607 30.4914L47.1724 30.4983L47.6822 29.638ZM50.9192 33.031L50.0346 33.4974L50.0382 33.5041L50.9192 33.031ZM50.8802 42.469L50.0022 41.9901L49.9956 42.0026L50.8802 42.469ZM47.6432 45.862L48.153 46.7223L48.153 46.7223L47.6432 45.862ZM46.3952 41.962L45.5952 41.362L45.5908 41.3679L45.5865 41.3738L46.3952 41.962ZM47.0582 34.786L46.1487 35.2018L46.1534 35.2118L47.0582 34.786ZM45.2642 32.602L44.6777 33.4119L44.6842 33.4166L44.6907 33.4212L45.2642 32.602ZM39.9602 32.602L39.3602 31.802L39.3602 31.802L39.9602 32.602ZM38.2442 34.786L37.3346 34.3702L37.3293 34.3824L38.2442 34.786ZM38.3222 40.792L37.4226 41.2289L37.4278 41.2392L38.3222 40.792ZM40.1162 42.898L39.5485 43.7212L39.5549 43.7257L39.5615 43.7301L40.1162 42.898ZM42.6902 47.11V46.11C40.9712 46.11 39.4981 45.7296 38.2401 44.9977L37.7372 45.862L37.2343 46.7263C38.8363 47.6584 40.6652 48.11 42.6902 48.11V47.11ZM37.7372 45.862L38.247 45.0017C36.9975 44.2612 36.0328 43.2619 35.3391 41.9901L34.4612 42.469L33.5833 42.9479C34.4496 44.5361 35.6689 45.7988 37.2274 46.7223L37.7372 45.862ZM34.4612 42.469L35.3391 41.9901C34.6448 40.7172 34.2912 39.2977 34.2912 37.711H33.2912H32.2912C32.2912 39.6084 32.7176 41.3608 33.5833 42.9479L34.4612 42.469ZM33.2912 37.711H34.2912C34.2912 36.1471 34.6332 34.7516 35.3032 33.5041L34.4222 33.031L33.5412 32.5579C32.7031 34.1184 32.2912 35.8429 32.2912 37.711H33.2912ZM34.4222 33.031L35.3001 33.5099C35.9938 32.2381 36.9585 31.2388 38.208 30.4983L37.6982 29.638L37.1884 28.7777C35.6299 29.7012 34.4106 30.9639 33.5443 32.5521L34.4222 33.031ZM37.6982 29.638L38.2196 30.4913C39.4417 29.7445 40.9186 29.351 42.6902 29.351V28.351V27.351C40.6138 27.351 38.7627 27.8155 37.1767 28.7847L37.6982 29.638ZM42.6902 28.351V29.351C44.4618 29.351 45.9387 29.7445 47.1607 30.4913L47.6822 29.638L48.2036 28.7847C46.6177 27.8155 44.7666 27.351 42.6902 27.351V28.351ZM47.6822 29.638L47.1724 30.4983C48.4191 31.2371 49.3676 32.2324 50.0346 33.4974L50.9192 33.031L51.8038 32.5646C50.9628 30.9696 49.7533 29.7029 48.192 28.7777L47.6822 29.638ZM50.9192 33.031L50.0382 33.5041C50.7081 34.7516 51.0502 36.1471 51.0502 37.711H52.0502H53.0502C53.0502 35.8429 52.6382 34.1184 51.8002 32.5579L50.9192 33.031ZM52.0502 37.711H51.0502C51.0502 39.2977 50.6966 40.7172 50.0023 41.9901L50.8802 42.469L51.7581 42.9479C52.6238 41.3608 53.0502 39.6084 53.0502 37.711H52.0502ZM50.8802 42.469L49.9956 42.0026C49.3286 43.2676 48.3801 44.2629 47.1334 45.0017L47.6432 45.862L48.153 46.7223C49.7143 45.7971 50.9238 44.5304 51.7648 42.9354L50.8802 42.469ZM47.6432 45.862L47.1334 45.0017C45.9074 45.7283 44.4384 46.11 42.6902 46.11V47.11V48.11C44.738 48.11 46.571 47.6597 48.153 46.7223L47.6432 45.862ZM42.8072 43.678V44.678C44.649 44.678 46.1624 43.9823 47.2039 42.5502L46.3952 41.962L45.5865 41.3738C44.964 42.2297 44.0854 42.678 42.8072 42.678V43.678ZM46.3952 41.962L47.1952 42.562C48.2014 41.2204 48.6822 39.6105 48.6822 37.789H47.6822H46.6822C46.6822 39.2435 46.305 40.4156 45.5952 41.362L46.3952 41.962ZM47.6822 37.789H48.6822C48.6822 36.545 48.4502 35.3954 47.963 34.3602L47.0582 34.786L46.1534 35.2118C46.4982 35.9446 46.6822 36.797 46.6822 37.789H47.6822ZM47.0582 34.786L47.9677 34.3702C47.4815 33.3068 46.7712 32.4362 45.8377 31.7828L45.2642 32.602L44.6907 33.4212C45.3172 33.8598 45.8029 34.4452 46.1487 35.2018L47.0582 34.786ZM45.2642 32.602L45.8507 31.7921C44.9063 31.1082 43.798 30.783 42.5732 30.783V31.783V32.783C43.4284 32.783 44.1141 33.0038 44.6777 33.4119L45.2642 32.602ZM42.5732 31.783V30.783C41.3688 30.783 40.281 31.1114 39.3602 31.802L39.9602 32.602L40.5602 33.402C41.0954 33.0006 41.7496 32.783 42.5732 32.783V31.783ZM39.9602 32.602L39.3602 31.802C38.4856 32.4579 37.8131 33.3238 37.3347 34.3702L38.2442 34.786L39.1537 35.2018C39.5073 34.4282 39.9788 33.8381 40.5602 33.402L39.9602 32.602ZM38.2442 34.786L37.3293 34.3824C36.875 35.412 36.6592 36.5537 36.6592 37.789H37.6592H38.6592C38.6592 36.7883 38.8334 35.928 39.1591 35.1896L38.2442 34.786ZM37.6592 37.789H36.6592C36.6592 39.0201 36.9094 40.1721 37.4227 41.2289L38.3222 40.792L39.2217 40.3551C38.851 39.5919 38.6592 38.7419 38.6592 37.789H37.6592ZM38.3222 40.792L37.4278 41.2392C37.9391 42.2618 38.6447 43.0979 39.5485 43.7212L40.1162 42.898L40.6839 42.0748C40.0797 41.6581 39.5893 41.0902 39.2166 40.3448L38.3222 40.792ZM40.1162 42.898L39.5615 43.7301C40.5193 44.3686 41.6126 44.678 42.8072 44.678V43.678V42.678C41.9737 42.678 41.2731 42.4674 40.6709 42.066L40.1162 42.898ZM56.1674 46.72H55.1674V47.72H56.1674V46.72ZM56.1674 28.819V27.819H55.1674V28.819H56.1674ZM60.3014 28.819L61.3014 28.8071L61.2896 27.819H60.3014V28.819ZM60.3404 32.095L59.3405 32.1069L61.2561 32.497L60.3404 32.095ZM62.6024 29.443L63.1619 30.2719L63.1664 30.2688L62.6024 29.443ZM70.7534 29.56L70.1112 30.3265L70.1174 30.3317L70.1236 30.3368L70.7534 29.56ZM72.6644 32.914L71.6866 33.1235L71.6884 33.1318L71.6903 33.1401L72.6644 32.914ZM73.1714 46.72V47.72H74.1714V46.72H73.1714ZM68.9594 46.72H67.9594V47.72H68.9594V46.72ZM68.3354 33.46L67.3937 33.7963L67.3972 33.8062L67.401 33.816L68.3354 33.46ZM63.2264 32.524L62.7243 31.6592L62.7243 31.6592L63.2264 32.524ZM61.1984 34.552L62.0492 35.0775L62.0492 35.0775L61.1984 34.552ZM60.3794 46.72V47.72H61.3794V46.72H60.3794ZM56.1674 46.72H57.1674V28.819H56.1674H55.1674V46.72H56.1674ZM56.1674 28.819V29.819H60.3014V28.819V27.819H56.1674V28.819ZM60.3014 28.819L59.3015 28.8309L59.3405 32.1069L60.3404 32.095L61.3404 32.0831L61.3014 28.8071L60.3014 28.819ZM60.3404 32.095L61.2561 32.497C61.6422 31.6176 62.2659 30.8767 63.1619 30.2718L62.6024 29.443L62.043 28.6142C60.859 29.4133 59.9747 30.4404 59.4248 31.693L60.3404 32.095ZM62.6024 29.443L63.1664 30.2688C64.0425 29.6705 65.1129 29.351 66.4244 29.351V28.351V27.351C64.7719 27.351 63.2943 27.7595 62.0385 28.6172L62.6024 29.443ZM66.4244 28.351V29.351C68.2332 29.351 69.4035 29.7335 70.1112 30.3265L70.7534 29.56L71.3957 28.7935C70.1794 27.7745 68.4637 27.351 66.4244 27.351V28.351ZM70.7534 29.56L70.1236 30.3368C70.8743 30.9454 71.4124 31.8439 71.6866 33.1235L72.6644 32.914L73.6422 32.7045C73.2924 31.0721 72.5565 29.7346 71.3832 28.7832L70.7534 29.56ZM72.6644 32.914L71.6903 33.1401C72.0065 34.5018 72.1714 36.1512 72.1714 38.101H73.1714H74.1714C74.1714 36.0468 73.9984 34.2382 73.6385 32.6879L72.6644 32.914ZM73.1714 38.101H72.1714V46.72H73.1714H74.1714V38.101H73.1714ZM73.1714 46.72V45.72H68.9594V46.72V47.72H73.1714V46.72ZM68.9594 46.72H69.9594V38.218H68.9594H67.9594V46.72H68.9594ZM68.9594 38.218H69.9594C69.9594 36.096 69.7506 34.3659 69.2699 33.104L68.3354 33.46L67.401 33.816C67.7522 34.7381 67.9594 36.18 67.9594 38.218H68.9594ZM68.3354 33.46L69.2772 33.1237C69.0105 32.3769 68.5392 31.7727 67.8598 31.3708C67.1985 30.9796 66.4119 30.822 65.5664 30.822V31.822V32.822C66.177 32.822 66.5798 32.9374 66.8416 33.0922C67.0852 33.2363 67.2704 33.4511 67.3937 33.7963L68.3354 33.46ZM65.5664 31.822V30.822C64.5989 30.822 63.6471 31.1234 62.7243 31.6592L63.2264 32.524L63.7286 33.3888C64.4178 32.9886 65.026 32.822 65.5664 32.822V31.822ZM63.2264 32.524L62.7243 31.6592C61.7602 32.219 60.9701 33.0188 60.3476 34.0265L61.1984 34.552L62.0492 35.0775C62.5188 34.3172 63.0807 33.765 63.7286 33.3888L63.2264 32.524ZM61.1984 34.552L60.3476 34.0265C59.6823 35.1037 59.3794 36.3887 59.3794 37.828H60.3794H61.3794C61.3794 36.6673 61.6226 35.7683 62.0492 35.0775L61.1984 34.552ZM60.3794 37.828H59.3794V46.72H60.3794H61.3794V37.828H60.3794ZM60.3794 46.72V45.72H56.1674V46.72V47.72H60.3794V46.72ZM78.0669 46.72H77.0669V47.72H78.0669V46.72ZM78.0669 28.819V27.819H77.0669V28.819H78.0669ZM82.2009 28.819L83.2008 28.8071L83.189 27.819H82.2009V28.819ZM82.2399 32.095L81.2399 32.1069L83.1555 32.497L82.2399 32.095ZM84.5019 29.443L85.0613 30.2719L85.0658 30.2688L84.5019 29.443ZM92.6529 29.56L92.0106 30.3265L92.0168 30.3317L92.0231 30.3368L92.6529 29.56ZM94.5639 32.914L93.586 33.1235L93.5878 33.1318L93.5898 33.1401L94.5639 32.914ZM95.0709 46.72V47.72H96.0709V46.72H95.0709ZM90.8589 46.72H89.8589V47.72H90.8589V46.72ZM90.2349 33.46L89.2931 33.7963L89.2966 33.8062L89.3004 33.816L90.2349 33.46ZM85.1259 32.524L84.6237 31.6592L84.6237 31.6592L85.1259 32.524ZM83.0979 34.552L83.9486 35.0775L83.9486 35.0775L83.0979 34.552ZM82.2789 46.72V47.72H83.2789V46.72H82.2789ZM78.0669 46.72H79.0669V28.819H78.0669H77.0669V46.72H78.0669ZM78.0669 28.819V29.819H82.2009V28.819V27.819H78.0669V28.819ZM82.2009 28.819L81.2009 28.8309L81.2399 32.1069L82.2399 32.095L83.2398 32.0831L83.2008 28.8071L82.2009 28.819ZM82.2399 32.095L83.1555 32.497C83.5416 31.6176 84.1653 30.8767 85.0613 30.2718L84.5019 29.443L83.9424 28.6142C82.7584 29.4133 81.8741 30.4404 81.3242 31.693L82.2399 32.095ZM84.5019 29.443L85.0658 30.2688C85.942 29.6705 87.0124 29.351 88.3239 29.351V28.351V27.351C86.6713 27.351 85.1938 27.7595 83.9379 28.6172L84.5019 29.443ZM88.3239 28.351V29.351C90.1326 29.351 91.3029 29.7335 92.0106 30.3265L92.6529 29.56L93.2951 28.7935C92.0788 27.7745 90.3631 27.351 88.3239 27.351V28.351ZM92.6529 29.56L92.0231 30.3368C92.7737 30.9454 93.3119 31.8439 93.586 33.1235L94.5639 32.914L95.5417 32.7045C95.1919 31.0721 94.456 29.7346 93.2827 28.7832L92.6529 29.56ZM94.5639 32.914L93.5898 33.1401C93.9059 34.5018 94.0709 36.1512 94.0709 38.101H95.0709H96.0709C96.0709 36.0468 95.8978 34.2382 95.5379 32.6879L94.5639 32.914ZM95.0709 38.101H94.0709V46.72H95.0709H96.0709V38.101H95.0709ZM95.0709 46.72V45.72H90.8589V46.72V47.72H95.0709V46.72ZM90.8589 46.72H91.8589V38.218H90.8589H89.8589V46.72H90.8589ZM90.8589 38.218H91.8589C91.8589 36.096 91.65 34.3659 91.1693 33.104L90.2349 33.46L89.3004 33.816C89.6517 34.7381 89.8589 36.18 89.8589 38.218H90.8589ZM90.2349 33.46L91.1766 33.1237C90.9099 32.3769 90.4386 31.7727 89.7592 31.3708C89.098 30.9796 88.3113 30.822 87.4659 30.822V31.822V32.822C88.0764 32.822 88.4792 32.9374 88.741 33.0922C88.9846 33.2363 89.1698 33.4511 89.2931 33.7963L90.2349 33.46ZM87.4659 31.822V30.822C86.4983 30.822 85.5465 31.1234 84.6237 31.6592L85.1259 32.524L85.628 33.3888C86.3172 32.9886 86.9254 32.822 87.4659 32.822V31.822ZM85.1259 32.524L84.6237 31.6592C83.6596 32.219 82.8695 33.0188 82.2471 34.0265L83.0979 34.552L83.9486 35.0775C84.4182 34.3172 84.9801 33.765 85.628 33.3888L85.1259 32.524ZM83.0979 34.552L82.2471 34.0265C81.5817 35.1037 81.2789 36.3887 81.2789 37.828H82.2789H83.2789C83.2789 36.6673 83.522 35.7683 83.9486 35.0775L83.0979 34.552ZM82.2789 37.828H81.2789V46.72H82.2789H83.2789V37.828H82.2789ZM82.2789 46.72V45.72H78.0669V46.72V47.72H82.2789V46.72ZM103.122 45.823L102.589 46.6693L102.6 46.6763L103.122 45.823ZM100.041 42.352L100.951 41.9382L100.041 42.352ZM100.236 32.758L99.3683 32.2601L99.3615 32.2724L100.236 32.758ZM103.551 29.521L104.024 30.402L104.03 30.3986L104.036 30.3952L103.551 29.521ZM114.51 30.73L113.736 31.3639L113.741 31.3702L114.51 30.73ZM116.343 39.232V40.232H117.244L117.337 39.3349L116.343 39.232ZM103.473 39.232V38.232H102.28L102.488 39.4067L103.473 39.232ZM105.189 42.703L104.555 43.477L104.568 43.4874L104.581 43.4974L105.189 42.703ZM114.003 42.547L114.922 42.1531L114.504 41.1783L113.555 41.6526L114.003 42.547ZM115.29 45.55L115.835 46.3884L116.54 45.9297L116.209 45.1561L115.29 45.55ZM112.872 46.603L113.167 47.5583L113.178 47.5551L113.188 47.5517L112.872 46.603ZM103.473 36.307L102.481 36.1748L102.33 37.307H103.473V36.307ZM112.365 36.307V37.307H113.349L113.364 36.3224L112.365 36.307ZM111.234 32.836L110.609 33.6169L110.609 33.6169L111.234 32.836ZM104.994 32.953L105.636 33.7192L105.638 33.7173L104.994 32.953ZM108.582 47.11V46.11C106.466 46.11 104.843 45.7032 103.643 44.9697L103.122 45.823L102.6 46.6763C104.208 47.6588 106.225 48.11 108.582 48.11V47.11ZM103.122 45.823L103.654 44.9768C102.406 44.1908 101.515 43.18 100.951 41.9382L100.041 42.352L99.1302 42.7658C99.8658 44.384 101.029 45.6872 102.589 46.6692L103.122 45.823ZM100.041 42.352L100.951 41.9382C100.362 40.6416 100.066 39.2621 100.066 37.789H99.0656H98.0656C98.0656 39.5399 98.4196 41.2024 99.1302 42.7658L100.041 42.352ZM99.0656 37.789H100.066C100.066 35.9728 100.428 34.4704 101.11 33.2436L100.236 32.758L99.3615 32.2724C98.483 33.8536 98.0656 35.7052 98.0656 37.789H99.0656ZM100.236 32.758L101.103 33.2559C101.817 32.0112 102.787 31.0661 104.024 30.402L103.551 29.521L103.077 28.64C101.506 29.4839 100.266 30.6968 99.3684 32.2601L100.236 32.758ZM103.551 29.521L104.036 30.3952C105.277 29.7058 106.693 29.351 108.309 29.351V28.351V27.351C106.388 27.351 104.632 27.7762 103.065 28.6468L103.551 29.521ZM108.309 28.351V29.351C110.964 29.351 112.691 30.0891 113.736 31.3639L114.51 30.73L115.283 30.0961C113.728 28.1989 111.322 27.351 108.309 27.351V28.351ZM114.51 30.73L113.741 31.3702C114.851 32.7017 115.46 34.5574 115.46 37.048H116.46H117.46C117.46 34.2346 116.768 31.8783 115.278 30.0898L114.51 30.73ZM116.46 37.048H115.46C115.46 37.713 115.423 38.4066 115.348 39.1291L116.343 39.232L117.337 39.3349C117.419 38.5494 117.46 37.787 117.46 37.048H116.46ZM116.343 39.232V38.232H103.473V39.232V40.232H116.343V39.232ZM103.473 39.232L102.488 39.4067C102.796 41.1449 103.442 42.5657 104.555 43.477L105.189 42.703L105.822 41.929C105.22 41.4363 104.721 40.5431 104.457 39.0573L103.473 39.232ZM105.189 42.703L104.581 43.4974C105.687 44.3428 107.091 44.717 108.699 44.717V43.717V42.717C107.394 42.717 106.459 42.4152 105.796 41.9086L105.189 42.703ZM108.699 43.717V44.717C110.148 44.717 111.372 44.5848 112.321 44.2787L112.014 43.327L111.707 42.3753C111.044 42.5892 110.057 42.717 108.699 42.717V43.717ZM112.014 43.327L112.321 44.2787C113.155 44.0095 113.869 43.7317 114.45 43.4414L114.003 42.547L113.555 41.6526C113.096 41.8823 112.484 42.1245 111.707 42.3753L112.014 43.327ZM114.003 42.547L113.083 42.9409L114.37 45.9439L115.29 45.55L116.209 45.1561L114.922 42.1531L114.003 42.547ZM115.29 45.55L114.745 44.7116C114.333 44.9794 113.623 45.2985 112.555 45.6543L112.872 46.603L113.188 47.5517C114.304 47.1795 115.207 46.7966 115.835 46.3884L115.29 45.55ZM112.872 46.603L112.576 45.6477C111.617 45.9445 110.298 46.11 108.582 46.11V47.11V48.11C110.401 48.11 111.942 47.9375 113.167 47.5583L112.872 46.603ZM103.473 36.307V37.307H112.365V36.307V35.307H103.473V36.307ZM112.365 36.307L113.364 36.3224C113.392 34.5326 113.006 32.9734 111.858 32.0551L111.234 32.836L110.609 33.6169C111.021 33.9466 111.389 34.7014 111.365 36.2916L112.365 36.307ZM111.234 32.836L111.858 32.0551C110.86 31.2569 109.609 30.9 108.192 30.9V31.9V32.9C109.27 32.9 110.047 33.1671 110.609 33.6169L111.234 32.836ZM108.192 31.9V30.9C106.704 30.9 105.395 31.3062 104.349 32.1887L104.994 32.953L105.638 33.7173C106.257 33.1958 107.08 32.9 108.192 32.9V31.9ZM104.994 32.953L104.351 32.1868C103.278 33.0869 102.706 34.4872 102.481 36.1748L103.473 36.307L104.464 36.4392C104.655 35.0068 105.097 34.1711 105.636 33.7192L104.994 32.953ZM124.463 45.979L123.99 46.86L123.997 46.8636L124.463 45.979ZM121.07 42.703L120.206 43.2059L120.213 43.2175L121.07 42.703ZM120.953 32.68L120.083 32.1874L120.08 32.1937L120.076 32.2L120.953 32.68ZM124.19 29.482L123.717 28.601L123.71 28.6047L124.19 29.482ZM132.731 28.936L132.356 29.8628L132.364 29.8662L132.731 28.936ZM134.954 30.184L135.83 30.6671L136.215 29.9698L135.621 29.4388L134.954 30.184ZM133.082 33.577L132.302 34.2017L133.236 35.3693L133.958 34.0601L133.082 33.577ZM132.458 32.992L133.099 32.2238L133.099 32.2238L132.458 32.992ZM131.21 32.29L130.782 33.1937L130.81 33.207L130.839 33.2185L131.21 32.29ZM125.516 33.499L124.745 32.8626L124.74 32.8684L124.736 32.8743L125.516 33.499ZM125.594 42.001L124.817 42.6302L124.825 42.6403L124.834 42.6503L125.594 42.001ZM131.795 43.249L132.092 44.2041L132.107 44.1995L132.121 44.1944L131.795 43.249ZM133.511 42.43L134.401 41.9734L133.866 40.9301L132.92 41.6236L133.511 42.43ZM135.032 45.394L135.646 46.1834L136.3 45.6746L135.922 44.9374L135.032 45.394ZM132.809 46.525L132.45 45.5917L132.45 45.5917L132.809 46.525ZM129.221 47.11V46.11C127.629 46.11 126.205 45.7668 124.93 45.0944L124.463 45.979L123.997 46.8636C125.582 47.6992 127.33 48.11 129.221 48.11V47.11ZM124.463 45.979L124.937 45.098C123.699 44.4333 122.698 43.4714 121.928 42.1885L121.07 42.703L120.213 43.2175C121.159 44.7946 122.42 46.0167 123.99 46.86L124.463 45.979ZM121.07 42.703L121.935 42.2001C121.209 40.952 120.822 39.4174 120.822 37.555H119.822H118.822C118.822 39.6966 119.268 41.594 120.206 43.2059L121.07 42.703ZM119.822 37.555H120.822C120.822 35.8186 121.171 34.365 121.831 33.16L120.953 32.68L120.076 32.2C119.228 33.751 118.822 35.5474 118.822 37.555H119.822ZM120.953 32.68L121.824 33.1726C122.513 31.9553 123.457 31.0231 124.67 30.3593L124.19 29.482L123.71 28.6047C122.168 29.4489 120.954 30.6487 120.083 32.1874L120.953 32.68ZM124.19 29.482L124.664 30.363C125.903 29.6976 127.348 29.351 129.026 29.351V28.351V27.351C127.065 27.351 125.286 27.7584 123.717 28.601L124.19 29.482ZM129.026 28.351V29.351C130.459 29.351 131.554 29.5378 132.356 29.8627L132.731 28.936L133.107 28.0093C131.985 27.5542 130.61 27.351 129.026 27.351V28.351ZM132.731 28.936L132.364 29.8662C133.3 30.2357 133.919 30.5992 134.288 30.9292L134.954 30.184L135.621 29.4388C135.002 28.8848 134.138 28.4163 133.099 28.0058L132.731 28.936ZM134.954 30.184L134.079 29.7009L132.207 33.0939L133.082 33.577L133.958 34.0601L135.83 30.6671L134.954 30.184ZM133.082 33.577L133.863 32.9523C133.689 32.7349 133.41 32.483 133.099 32.2238L132.458 32.992L131.818 33.7602C132.131 34.021 132.267 34.1591 132.302 34.2017L133.082 33.577ZM132.458 32.992L133.099 32.2238C132.682 31.8765 132.165 31.5948 131.582 31.3615L131.21 32.29L130.839 33.2185C131.296 33.4012 131.611 33.5875 131.818 33.7602L132.458 32.992ZM131.21 32.29L131.639 31.3863C130.974 31.0715 130.207 30.939 129.377 30.939V31.939V32.939C130.004 32.939 130.459 33.0405 130.782 33.1937L131.21 32.29ZM129.377 31.939V30.939C127.451 30.939 125.843 31.532 124.745 32.8626L125.516 33.499L126.288 34.1354C126.906 33.386 127.872 32.939 129.377 32.939V31.939ZM125.516 33.499L124.736 32.8743C123.731 34.1294 123.268 35.7046 123.268 37.516H124.268H125.268C125.268 36.0514 125.637 34.9486 126.297 34.1237L125.516 33.499ZM124.268 37.516H123.268C123.268 39.5628 123.746 41.3065 124.817 42.6302L125.594 42.001L126.372 41.3718C125.675 40.5115 125.268 39.2652 125.268 37.516H124.268ZM125.594 42.001L124.834 42.6503C125.963 43.9735 127.522 44.6 129.377 44.6V43.6V42.6C128.009 42.6 127.045 42.1605 126.355 41.3517L125.594 42.001ZM129.377 43.6V44.6C130.327 44.6 131.234 44.4703 132.092 44.2041L131.795 43.249L131.499 42.2939C130.849 42.4957 130.144 42.6 129.377 42.6V43.6ZM131.795 43.249L132.121 44.1944C132.917 43.9199 133.596 43.6077 134.103 43.2364L133.511 42.43L132.92 41.6236C132.646 41.8243 132.182 42.0581 131.469 42.3036L131.795 43.249ZM133.511 42.43L132.622 42.8866L134.143 45.8506L135.032 45.394L135.922 44.9374L134.401 41.9734L133.511 42.43ZM135.032 45.394L134.419 44.6046C134.067 44.8777 133.436 45.2128 132.45 45.5917L132.809 46.525L133.168 47.4583C134.211 47.0572 135.061 46.6383 135.646 46.1834L135.032 45.394ZM132.809 46.525L132.45 45.5917C131.577 45.9275 130.508 46.11 129.221 46.11V47.11V48.11C130.691 48.11 132.014 47.9025 133.168 47.4583L132.809 46.525ZM140.602 46.72H139.602V47.72H140.602V46.72ZM140.602 32.251H141.602V31.251H140.602V32.251ZM137.443 32.251H136.443V33.251H137.443V32.251ZM137.443 28.819V27.819H136.443V28.819H137.443ZM140.602 28.819V29.819H141.602V28.819H140.602ZM140.602 21.526L140.387 20.5494L139.602 20.7222V21.526H140.602ZM144.853 20.59H145.853V19.3459L144.638 19.6134L144.853 20.59ZM144.853 28.819H143.853V29.819H144.853V28.819ZM148.987 28.819H149.987V27.819H148.987V28.819ZM148.987 32.251V33.251H149.987V32.251H148.987ZM144.853 32.251V31.251H143.853V32.251H144.853ZM144.853 46.72V47.72H145.853V46.72H144.853ZM140.602 46.72H141.602V32.251H140.602H139.602V46.72H140.602ZM140.602 32.251V31.251H137.443V32.251V33.251H140.602V32.251ZM137.443 32.251H138.443V28.819H137.443H136.443V32.251H137.443ZM137.443 28.819V29.819H140.602V28.819V27.819H137.443V28.819ZM140.602 28.819H141.602V21.526H140.602H139.602V28.819H140.602ZM140.602 21.526L140.817 22.5026L145.068 21.5666L144.853 20.59L144.638 19.6134L140.387 20.5494L140.602 21.526ZM144.853 20.59H143.853V28.819H144.853H145.853V20.59H144.853ZM144.853 28.819V29.819H148.987V28.819V27.819H144.853V28.819ZM148.987 28.819H147.987V32.251H148.987H149.987V28.819H148.987ZM148.987 32.251V31.251H144.853V32.251V33.251H148.987V32.251ZM144.853 32.251H143.853V46.72H144.853H145.853V32.251H144.853ZM144.853 46.72V45.72H140.602V46.72V47.72H144.853V46.72Z" fill="#404040" mask="url(#path-1-outside-1_9072_32116)"/>
<path d="M6.28448 58.3C4.57759 58.3 3.10345 57.7518 1.86207 56.6554C0.62069 55.4807 0 53.5229 0 50.7819C0 49.6072 0.116379 48.3151 0.349138 46.9054C1.04741 43.2247 2.17241 39.7006 3.72414 36.3332C5.35345 32.9657 6.90517 30.0681 8.37931 27.6404C9.93104 25.1344 10.9397 23.4898 11.4052 22.7066C11.7931 21.9235 12.8017 21.1795 14.431 20.4747C16.0603 19.6916 17.4181 19.3 18.5043 19.3C19.4353 19.3 19.9009 19.6133 19.9009 20.2398C19.9009 20.788 19.7069 21.297 19.319 21.7669C18.1552 23.6464 16.7974 25.8 15.2457 28.2277C13.7716 30.5771 12.3362 33.0832 10.9397 35.7458C9.5431 38.4085 8.37931 41.0319 7.44828 43.6163C6.51724 46.2006 6.05172 48.5892 6.05172 50.7819C6.05172 51.9566 6.24569 52.8964 6.63362 53.6012C7.09914 54.306 7.91379 54.6585 9.07759 54.6585C10.319 54.6585 11.7543 54.0711 13.3836 52.8964C15.0129 51.6434 16.5647 50.2729 18.0388 48.785C19.5905 47.2187 20.7155 46.0048 21.4138 45.1434C22.1897 44.2819 22.9267 43.4597 23.625 42.6765C24.4009 41.8934 25.0991 41.0711 25.7198 40.2097C25.9526 39.9747 26.1466 39.8572 26.3017 39.8572C26.7672 39.8572 27 40.2097 27 40.9145C27 41.306 26.8448 41.6585 26.5345 41.9717C25.681 42.9898 24.8276 44.047 23.9741 45.1434C23.1207 46.1615 22.2284 47.1795 21.2974 48.1976C20.056 49.6856 18.6595 51.2127 17.1078 52.7789C15.556 54.3452 13.8879 55.6765 12.1034 56.7729C10.319 57.791 8.37931 58.3 6.28448 58.3Z" fill="#4CA33F"/>
<path d="M23.5 7.32C22.62 7.32 21.9 7.04 21.34 6.48C20.78 5.84 20.5 5.12 20.5 4.32C20.5 3.12 20.9 2.12 21.7 1.32C22.58 0.439999 23.54 0 24.58 0C25.62 0 26.42 0.360002 26.98 1.08C27.62 1.72 27.86 2.56 27.7 3.6C27.46 4.64 26.94 5.52 26.14 6.24C25.42 6.96 24.54 7.32 23.5 7.32Z" fill="#4CA33F"/>
</svg>
