<svg width="17" height="33" viewBox="0 0 17 33" fill="none" xmlns="http://www.w3.org/2000/svg">
<path d="M10.9158 11.0703C11.1798 11.0703 11.4239 11.1134 11.6083 11.2374C11.811 11.3739 11.9053 11.5831 11.9054 11.8214C11.9054 12.1663 11.7837 12.4814 11.5584 12.7625C10.9512 13.7429 10.2438 14.8657 9.43558 16.1301C8.67071 17.3492 7.92561 18.6502 7.20018 20.0333C6.47658 21.4129 5.87419 22.771 5.39282 24.1071C4.91481 25.434 4.67949 26.6501 4.67945 27.7576C4.67945 28.3388 4.77484 28.7777 4.94493 29.0926C5.1235 29.3569 5.44657 29.5195 5.99712 29.5195C6.5656 29.5195 7.2605 29.2483 8.09138 28.6492C8.92977 28.004 9.72861 27.2983 10.4878 26.5321C11.296 25.7163 11.8756 25.0903 12.2315 24.6513L12.2355 24.6462L12.2401 24.6411C12.6447 24.1919 13.0292 23.7633 13.3933 23.3551L13.4024 23.3448C13.798 22.9455 14.1538 22.5268 14.4694 22.0888L14.4811 22.0725L14.4954 22.0577C14.565 21.9875 14.6378 21.9259 14.7129 21.8804C14.7867 21.8358 14.8794 21.7968 14.9846 21.7968L15.0579 21.8004C15.2265 21.8184 15.375 21.8999 15.4753 22.0516C15.5773 22.2061 15.6098 22.4048 15.6098 22.6091C15.6098 22.884 15.4998 23.1255 15.3056 23.328C14.8624 23.8567 14.4196 24.4063 13.9761 24.9759L13.9731 24.9794L13.97 24.9836C13.5248 25.5147 13.0592 26.0455 12.5739 26.5764L12.3252 26.8709C11.7361 27.5602 11.0851 28.2644 10.3726 28.9835C9.54917 29.8147 8.66246 30.5223 7.71278 31.1058L7.70923 31.1083L7.70568 31.1103C6.73439 31.6645 5.67728 31.9414 4.53983 31.9414C3.58786 31.9414 2.75677 31.6336 2.05986 31.0181L2.05629 31.0151L2.05323 31.012C1.32928 30.3269 1 29.2174 1 27.7576C1.00002 27.1279 1.06223 26.4393 1.18548 25.6928L1.18649 25.6862C1.55476 23.7451 2.14876 21.8862 2.96737 20.1097L2.9694 20.1051C3.82208 18.3429 4.6356 16.8233 5.41014 15.5477L5.41116 15.5457C6.22107 14.2377 6.74623 13.3817 6.98771 12.9755C7.23895 12.487 7.83534 12.0744 8.67786 11.7088L8.99635 11.562C9.72778 11.2409 10.3702 11.0704 10.9158 11.0703Z" fill="white" stroke="white"/>
<path d="M14.0862 1C14.69 1.00001 15.1844 1.21122 15.5328 1.65018C15.9279 2.05164 16.065 2.57442 15.972 3.17883L15.9705 3.18851L15.9685 3.19819C15.8311 3.79337 15.5315 4.2994 15.0747 4.71053C14.6507 5.12995 14.1282 5.34135 13.5227 5.34135C13.0028 5.34135 12.5578 5.17343 12.2111 4.82671L12.205 4.8206L12.1994 4.81397C11.8685 4.43578 11.6965 3.99988 11.6964 3.51513C11.6964 2.82448 11.9296 2.23488 12.3991 1.76534C12.8969 1.26756 13.461 1 14.0862 1Z" fill="white" stroke="white"/>
</svg>
