<svg width="151" height="62" viewBox="0 0 151 62" fill="none" xmlns="http://www.w3.org/2000/svg">
<mask id="path-1-outside-1_9085_32143" maskUnits="userSpaceOnUse" x="9" y="16.72" width="142" height="33" fill="black">
<rect fill="white" x="9" y="16.72" width="142" height="33"/>
<path d="M25.068 47.993C22.78 47.993 20.739 47.603 18.945 46.823C17.177 46.043 15.669 44.977 14.421 43.625C13.199 42.247 12.263 40.687 11.613 38.945C10.989 37.177 10.677 35.305 10.677 33.329C10.677 31.171 11.028 29.195 11.73 27.401C12.458 25.607 13.472 24.06 14.772 22.76C16.072 21.434 17.619 20.407 19.413 19.679C21.207 18.951 23.183 18.587 25.341 18.587C26.745 18.587 27.993 18.73 29.085 19.016C30.177 19.302 31.074 19.627 31.776 19.991C32.478 20.329 32.92 20.602 33.102 20.81L31.191 24.71C30.489 24.086 29.618 23.579 28.578 23.189C27.564 22.799 26.368 22.604 24.99 22.604C23.196 22.604 21.571 23.046 20.115 23.93C18.685 24.814 17.541 26.062 16.683 27.674C15.851 29.286 15.435 31.197 15.435 33.407C15.435 35.357 15.799 37.138 16.527 38.75C17.255 40.336 18.321 41.61 19.725 42.572C21.155 43.534 22.884 44.015 24.912 44.015C26.03 44.015 27.122 43.872 28.188 43.586C29.28 43.274 30.398 42.767 31.542 42.065L32.829 45.77C32.491 46.082 31.919 46.42 31.113 46.784C30.307 47.122 29.371 47.408 28.305 47.642C27.265 47.876 26.186 47.993 25.068 47.993ZM43.6902 48.11C41.8182 48.11 40.1672 47.694 38.7372 46.862C37.3332 46.03 36.2412 44.899 35.4612 43.469C34.6812 42.039 34.2912 40.453 34.2912 38.711C34.2912 36.995 34.6682 35.435 35.4222 34.031C36.2022 32.601 37.2942 31.47 38.6982 30.638C40.1022 29.78 41.7662 29.351 43.6902 29.351C45.6142 29.351 47.2782 29.78 48.6822 30.638C50.0862 31.47 51.1652 32.601 51.9192 34.031C52.6732 35.435 53.0502 36.995 53.0502 38.711C53.0502 40.453 52.6602 42.039 51.8802 43.469C51.1262 44.899 50.0472 46.03 48.6432 46.862C47.2392 47.694 45.5882 48.11 43.6902 48.11ZM43.8072 44.678C45.3672 44.678 46.5632 44.106 47.3952 42.962C48.2532 41.818 48.6822 40.427 48.6822 38.789C48.6822 37.671 48.4742 36.67 48.0582 35.786C47.6422 34.876 47.0442 34.148 46.2642 33.602C45.5102 33.056 44.6132 32.783 43.5732 32.783C42.5592 32.783 41.6882 33.056 40.9602 33.602C40.2322 34.148 39.6602 34.876 39.2442 35.786C38.8542 36.67 38.6592 37.671 38.6592 38.789C38.6592 39.881 38.8802 40.882 39.3222 41.792C39.7642 42.676 40.3622 43.378 41.1162 43.898C41.8962 44.418 42.7932 44.678 43.8072 44.678ZM57.1674 47.72V29.819H61.3014L61.3404 33.095C61.8084 32.029 62.5624 31.145 63.6024 30.443C64.6684 29.715 65.9424 29.351 67.4244 29.351C69.3484 29.351 70.7914 29.754 71.7534 30.56C72.7154 31.34 73.3524 32.458 73.6644 33.914C74.0024 35.37 74.1714 37.099 74.1714 39.101V47.72H69.9594V39.218C69.9594 37.138 69.7514 35.552 69.3354 34.46C68.9454 33.368 68.0224 32.822 66.5664 32.822C65.8124 32.822 65.0324 33.056 64.2264 33.524C63.4204 33.992 62.7444 34.668 62.1984 35.552C61.6524 36.436 61.3794 37.528 61.3794 38.828V47.72H57.1674ZM79.0669 47.72V29.819H83.2009L83.2399 33.095C83.7079 32.029 84.4619 31.145 85.5019 30.443C86.5679 29.715 87.8419 29.351 89.3239 29.351C91.2479 29.351 92.6909 29.754 93.6529 30.56C94.6149 31.34 95.2519 32.458 95.5639 33.914C95.9019 35.37 96.0709 37.099 96.0709 39.101V47.72H91.8589V39.218C91.8589 37.138 91.6509 35.552 91.2349 34.46C90.8449 33.368 89.9219 32.822 88.4659 32.822C87.7119 32.822 86.9319 33.056 86.1259 33.524C85.3199 33.992 84.6439 34.668 84.0979 35.552C83.5519 36.436 83.2789 37.528 83.2789 38.828V47.72H79.0669ZM109.582 48.11C107.346 48.11 105.526 47.681 104.122 46.823C102.718 45.939 101.691 44.782 101.041 43.352C100.391 41.922 100.066 40.401 100.066 38.789C100.066 36.839 100.456 35.162 101.236 33.758C102.042 32.354 103.147 31.275 104.551 30.521C105.955 29.741 107.541 29.351 109.309 29.351C112.143 29.351 114.21 30.144 115.51 31.73C116.81 33.29 117.46 35.396 117.46 38.048C117.46 38.75 117.421 39.478 117.343 40.232H104.473C104.759 41.844 105.331 43.001 106.189 43.703C107.073 44.379 108.243 44.717 109.699 44.717C111.103 44.717 112.208 44.587 113.014 44.327C113.82 44.067 114.483 43.807 115.003 43.547L116.29 46.55C115.77 46.888 114.964 47.239 113.872 47.603C112.78 47.941 111.35 48.11 109.582 48.11ZM104.473 37.307H113.365C113.391 35.617 113.014 34.46 112.234 33.836C111.454 33.212 110.44 32.9 109.192 32.9C107.892 32.9 106.826 33.251 105.994 33.953C105.188 34.629 104.681 35.747 104.473 37.307ZM130.221 48.11C128.479 48.11 126.893 47.733 125.463 46.979C124.059 46.225 122.928 45.133 122.07 43.703C121.238 42.273 120.822 40.557 120.822 38.555C120.822 36.683 121.199 35.058 121.953 33.68C122.733 32.302 123.812 31.236 125.19 30.482C126.594 29.728 128.206 29.351 130.026 29.351C131.534 29.351 132.769 29.546 133.731 29.936C134.719 30.326 135.46 30.742 135.954 31.184L134.082 34.577C133.978 34.447 133.77 34.252 133.458 33.992C133.146 33.732 132.73 33.498 132.21 33.29C131.716 33.056 131.105 32.939 130.377 32.939C128.661 32.939 127.374 33.459 126.516 34.499C125.684 35.539 125.268 36.878 125.268 38.516C125.268 40.414 125.71 41.909 126.594 43.001C127.504 44.067 128.765 44.6 130.377 44.6C131.235 44.6 132.041 44.483 132.795 44.249C133.549 43.989 134.121 43.716 134.511 43.43L136.032 46.394C135.564 46.758 134.823 47.135 133.809 47.525C132.795 47.915 131.599 48.11 130.221 48.11ZM141.602 47.72V33.251H138.443V29.819H141.602V22.526L145.853 21.59V29.819H149.987V33.251H145.853V47.72H141.602Z"/>
</mask>
<path d="M25.068 47.993C22.78 47.993 20.739 47.603 18.945 46.823C17.177 46.043 15.669 44.977 14.421 43.625C13.199 42.247 12.263 40.687 11.613 38.945C10.989 37.177 10.677 35.305 10.677 33.329C10.677 31.171 11.028 29.195 11.73 27.401C12.458 25.607 13.472 24.06 14.772 22.76C16.072 21.434 17.619 20.407 19.413 19.679C21.207 18.951 23.183 18.587 25.341 18.587C26.745 18.587 27.993 18.73 29.085 19.016C30.177 19.302 31.074 19.627 31.776 19.991C32.478 20.329 32.92 20.602 33.102 20.81L31.191 24.71C30.489 24.086 29.618 23.579 28.578 23.189C27.564 22.799 26.368 22.604 24.99 22.604C23.196 22.604 21.571 23.046 20.115 23.93C18.685 24.814 17.541 26.062 16.683 27.674C15.851 29.286 15.435 31.197 15.435 33.407C15.435 35.357 15.799 37.138 16.527 38.75C17.255 40.336 18.321 41.61 19.725 42.572C21.155 43.534 22.884 44.015 24.912 44.015C26.03 44.015 27.122 43.872 28.188 43.586C29.28 43.274 30.398 42.767 31.542 42.065L32.829 45.77C32.491 46.082 31.919 46.42 31.113 46.784C30.307 47.122 29.371 47.408 28.305 47.642C27.265 47.876 26.186 47.993 25.068 47.993ZM43.6902 48.11C41.8182 48.11 40.1672 47.694 38.7372 46.862C37.3332 46.03 36.2412 44.899 35.4612 43.469C34.6812 42.039 34.2912 40.453 34.2912 38.711C34.2912 36.995 34.6682 35.435 35.4222 34.031C36.2022 32.601 37.2942 31.47 38.6982 30.638C40.1022 29.78 41.7662 29.351 43.6902 29.351C45.6142 29.351 47.2782 29.78 48.6822 30.638C50.0862 31.47 51.1652 32.601 51.9192 34.031C52.6732 35.435 53.0502 36.995 53.0502 38.711C53.0502 40.453 52.6602 42.039 51.8802 43.469C51.1262 44.899 50.0472 46.03 48.6432 46.862C47.2392 47.694 45.5882 48.11 43.6902 48.11ZM43.8072 44.678C45.3672 44.678 46.5632 44.106 47.3952 42.962C48.2532 41.818 48.6822 40.427 48.6822 38.789C48.6822 37.671 48.4742 36.67 48.0582 35.786C47.6422 34.876 47.0442 34.148 46.2642 33.602C45.5102 33.056 44.6132 32.783 43.5732 32.783C42.5592 32.783 41.6882 33.056 40.9602 33.602C40.2322 34.148 39.6602 34.876 39.2442 35.786C38.8542 36.67 38.6592 37.671 38.6592 38.789C38.6592 39.881 38.8802 40.882 39.3222 41.792C39.7642 42.676 40.3622 43.378 41.1162 43.898C41.8962 44.418 42.7932 44.678 43.8072 44.678ZM57.1674 47.72V29.819H61.3014L61.3404 33.095C61.8084 32.029 62.5624 31.145 63.6024 30.443C64.6684 29.715 65.9424 29.351 67.4244 29.351C69.3484 29.351 70.7914 29.754 71.7534 30.56C72.7154 31.34 73.3524 32.458 73.6644 33.914C74.0024 35.37 74.1714 37.099 74.1714 39.101V47.72H69.9594V39.218C69.9594 37.138 69.7514 35.552 69.3354 34.46C68.9454 33.368 68.0224 32.822 66.5664 32.822C65.8124 32.822 65.0324 33.056 64.2264 33.524C63.4204 33.992 62.7444 34.668 62.1984 35.552C61.6524 36.436 61.3794 37.528 61.3794 38.828V47.72H57.1674ZM79.0669 47.72V29.819H83.2009L83.2399 33.095C83.7079 32.029 84.4619 31.145 85.5019 30.443C86.5679 29.715 87.8419 29.351 89.3239 29.351C91.2479 29.351 92.6909 29.754 93.6529 30.56C94.6149 31.34 95.2519 32.458 95.5639 33.914C95.9019 35.37 96.0709 37.099 96.0709 39.101V47.72H91.8589V39.218C91.8589 37.138 91.6509 35.552 91.2349 34.46C90.8449 33.368 89.9219 32.822 88.4659 32.822C87.7119 32.822 86.9319 33.056 86.1259 33.524C85.3199 33.992 84.6439 34.668 84.0979 35.552C83.5519 36.436 83.2789 37.528 83.2789 38.828V47.72H79.0669ZM109.582 48.11C107.346 48.11 105.526 47.681 104.122 46.823C102.718 45.939 101.691 44.782 101.041 43.352C100.391 41.922 100.066 40.401 100.066 38.789C100.066 36.839 100.456 35.162 101.236 33.758C102.042 32.354 103.147 31.275 104.551 30.521C105.955 29.741 107.541 29.351 109.309 29.351C112.143 29.351 114.21 30.144 115.51 31.73C116.81 33.29 117.46 35.396 117.46 38.048C117.46 38.75 117.421 39.478 117.343 40.232H104.473C104.759 41.844 105.331 43.001 106.189 43.703C107.073 44.379 108.243 44.717 109.699 44.717C111.103 44.717 112.208 44.587 113.014 44.327C113.82 44.067 114.483 43.807 115.003 43.547L116.29 46.55C115.77 46.888 114.964 47.239 113.872 47.603C112.78 47.941 111.35 48.11 109.582 48.11ZM104.473 37.307H113.365C113.391 35.617 113.014 34.46 112.234 33.836C111.454 33.212 110.44 32.9 109.192 32.9C107.892 32.9 106.826 33.251 105.994 33.953C105.188 34.629 104.681 35.747 104.473 37.307ZM130.221 48.11C128.479 48.11 126.893 47.733 125.463 46.979C124.059 46.225 122.928 45.133 122.07 43.703C121.238 42.273 120.822 40.557 120.822 38.555C120.822 36.683 121.199 35.058 121.953 33.68C122.733 32.302 123.812 31.236 125.19 30.482C126.594 29.728 128.206 29.351 130.026 29.351C131.534 29.351 132.769 29.546 133.731 29.936C134.719 30.326 135.46 30.742 135.954 31.184L134.082 34.577C133.978 34.447 133.77 34.252 133.458 33.992C133.146 33.732 132.73 33.498 132.21 33.29C131.716 33.056 131.105 32.939 130.377 32.939C128.661 32.939 127.374 33.459 126.516 34.499C125.684 35.539 125.268 36.878 125.268 38.516C125.268 40.414 125.71 41.909 126.594 43.001C127.504 44.067 128.765 44.6 130.377 44.6C131.235 44.6 132.041 44.483 132.795 44.249C133.549 43.989 134.121 43.716 134.511 43.43L136.032 46.394C135.564 46.758 134.823 47.135 133.809 47.525C132.795 47.915 131.599 48.11 130.221 48.11ZM141.602 47.72V33.251H138.443V29.819H141.602V22.526L145.853 21.59V29.819H149.987V33.251H145.853V47.72H141.602Z" fill="white"/>
<path d="M18.945 46.823L18.5414 47.7379L18.5463 47.7401L18.945 46.823ZM14.421 43.625L13.6728 44.2885L13.6794 44.296L13.6862 44.3033L14.421 43.625ZM11.613 38.945L10.67 39.2778L10.673 39.2862L10.6761 39.2946L11.613 38.945ZM11.73 27.401L10.8033 27.025L10.7988 27.0366L11.73 27.401ZM14.772 22.76L15.4791 23.4671L15.4861 23.4601L14.772 22.76ZM29.085 19.016L29.3384 18.0486L29.3384 18.0486L29.085 19.016ZM31.776 19.991L31.3157 20.8788L31.3288 20.8856L31.3422 20.892L31.776 19.991ZM33.102 20.81L34 21.25L34.2928 20.6524L33.8546 20.1515L33.102 20.81ZM31.191 24.71L30.5266 25.4574L31.51 26.3315L32.089 25.15L31.191 24.71ZM28.578 23.189L28.219 24.1224L28.2269 24.1253L28.578 23.189ZM20.115 23.93L19.596 23.0752L19.5892 23.0794L20.115 23.93ZM16.683 27.674L15.8002 27.2041L15.7944 27.2154L16.683 27.674ZM16.527 38.75L15.6156 39.1616L15.6182 39.1672L16.527 38.75ZM19.725 42.572L19.1597 43.397L19.1668 43.4017L19.725 42.572ZM28.188 43.586L28.4471 44.5518L28.4549 44.5497L28.4627 44.5475L28.188 43.586ZM31.542 42.065L32.4866 41.7369L32.0787 40.5624L31.019 41.2127L31.542 42.065ZM32.829 45.77L33.5073 46.5048L33.9885 46.0606L33.7736 45.4419L32.829 45.77ZM31.113 46.784L31.4997 47.7062L31.5122 47.701L31.5246 47.6954L31.113 46.784ZM28.305 47.642L28.0906 46.6652L28.0855 46.6664L28.305 47.642ZM25.068 47.993V46.993C22.8942 46.993 20.9924 46.6227 19.3437 45.9059L18.945 46.823L18.5463 47.7401C20.4856 48.5833 22.6658 48.993 25.068 48.993V47.993ZM18.945 46.823L19.3486 45.9081C17.6997 45.1806 16.3062 44.1929 15.1558 42.9467L14.421 43.625L13.6862 44.3033C15.0318 45.7611 16.6543 46.9054 18.5414 47.7379L18.945 46.823ZM14.421 43.625L15.1692 42.9615C14.0297 41.6765 13.1573 40.2232 12.5499 38.5954L11.613 38.945L10.6761 39.2946C11.3687 41.1508 12.3683 42.8175 13.6728 44.2885L14.421 43.625ZM11.613 38.945L12.556 38.6122C11.9717 36.9567 11.677 35.1978 11.677 33.329H10.677H9.677C9.677 35.4122 10.0063 37.3973 10.67 39.2778L11.613 38.945ZM10.677 33.329H11.677C11.677 31.2808 12.0098 29.4302 12.6612 27.7654L11.73 27.401L10.7988 27.0366C10.0462 28.9599 9.677 31.0612 9.677 33.329H10.677ZM11.73 27.401L12.6566 27.777C13.337 26.1003 14.2787 24.6676 15.4791 23.4671L14.772 22.76L14.0649 22.0529C12.6653 23.4524 11.579 25.1137 10.8034 27.025L11.73 27.401ZM14.772 22.76L15.4861 23.4601C16.686 22.2361 18.1165 21.2843 19.789 20.6056L19.413 19.679L19.037 18.7524C17.1215 19.5297 15.458 20.6319 14.0579 22.0599L14.772 22.76ZM19.413 19.679L19.789 20.6056C21.4506 19.9313 23.2971 19.587 25.341 19.587V18.587V17.587C23.0689 17.587 20.9634 17.9707 19.037 18.7524L19.413 19.679ZM25.341 18.587V19.587C26.6793 19.587 27.8396 19.7235 28.8316 19.9834L29.085 19.016L29.3384 18.0486C28.1464 17.7365 26.8107 17.587 25.341 17.587V18.587ZM29.085 19.016L28.8316 19.9834C29.8797 20.2579 30.7008 20.5599 31.3157 20.8788L31.776 19.991L32.2363 19.1032C31.4472 18.6941 30.4743 18.3461 29.3384 18.0486L29.085 19.016ZM31.776 19.991L31.3422 20.892C31.6756 21.0525 31.9279 21.1885 32.1085 21.3C32.3054 21.4216 32.3586 21.479 32.3494 21.4685L33.102 20.81L33.8546 20.1515C33.6634 19.933 33.4046 19.7499 33.1595 19.5985C32.8981 19.437 32.5784 19.2675 32.2098 19.09L31.776 19.991ZM33.102 20.81L32.204 20.37L30.293 24.27L31.191 24.71L32.089 25.15L34 21.25L33.102 20.81ZM31.191 24.71L31.8554 23.9626C31.0463 23.2435 30.0637 22.6781 28.9291 22.2527L28.578 23.189L28.2269 24.1253C29.1723 24.4799 29.9317 24.9285 30.5266 25.4574L31.191 24.71ZM28.578 23.189L28.937 22.2557C27.7823 21.8115 26.4592 21.604 24.99 21.604V22.604V23.604C26.2768 23.604 27.3457 23.7865 28.219 24.1223L28.578 23.189ZM24.99 22.604V21.604C23.0232 21.604 21.2169 22.0911 19.596 23.0752L20.115 23.93L20.634 24.7848C21.9251 24.0009 23.3689 23.604 24.99 23.604V22.604ZM20.115 23.93L19.5892 23.0794C17.9957 24.0644 16.734 25.4498 15.8003 27.2042L16.683 27.674L17.5657 28.1439C18.348 26.6742 19.3743 25.5636 20.6408 24.7806L20.115 23.93ZM16.683 27.674L15.7944 27.2154C14.8749 28.9969 14.435 31.0718 14.435 33.407H15.435H16.435C16.435 31.3222 16.8271 29.5751 17.5716 28.1326L16.683 27.674ZM15.435 33.407H14.435C14.435 35.4843 14.8235 37.4075 15.6156 39.1616L16.527 38.75L17.4384 38.3384C16.7745 36.8685 16.435 35.2297 16.435 33.407H15.435ZM16.527 38.75L15.6182 39.1672C16.4197 40.9133 17.6025 42.3299 19.1598 43.3969L19.725 42.572L20.2902 41.7471C19.0395 40.8901 18.0903 39.7587 17.4358 38.3328L16.527 38.75ZM19.725 42.572L19.1668 43.4017C20.7893 44.4932 22.7211 45.015 24.912 45.015V44.015V43.015C23.0469 43.015 21.5207 42.5748 20.2832 41.7423L19.725 42.572ZM24.912 44.015V45.015C26.1164 45.015 27.2955 44.8608 28.4471 44.5518L28.188 43.586L27.9289 42.6202C26.9485 42.8832 25.9436 43.015 24.912 43.015V44.015ZM28.188 43.586L28.4627 44.5475C29.6562 44.2065 30.8572 43.6585 32.065 42.9173L31.542 42.065L31.019 41.2127C29.9388 41.8755 28.9038 42.3415 27.9133 42.6245L28.188 43.586ZM31.542 42.065L30.5974 42.3931L31.8844 46.0981L32.829 45.77L33.7736 45.4419L32.4866 41.7369L31.542 42.065ZM32.829 45.77L32.1507 45.0352C31.9343 45.235 31.4824 45.5199 30.7014 45.8726L31.113 46.784L31.5246 47.6954C32.3556 47.3201 33.0477 46.929 33.5073 46.5048L32.829 45.77ZM31.113 46.784L30.7263 45.8618C29.9877 46.1716 29.1115 46.4412 28.0906 46.6653L28.305 47.642L28.5194 48.6187C29.6305 48.3748 30.6263 48.0725 31.4997 47.7062L31.113 46.784ZM28.305 47.642L28.0855 46.6664C27.121 46.8834 26.1157 46.993 25.068 46.993V47.993V48.993C26.2563 48.993 27.409 48.8686 28.5245 48.6176L28.305 47.642ZM38.7372 46.862L38.2274 47.7223L38.2343 47.7263L38.7372 46.862ZM35.4612 43.469L34.5833 43.9479L34.5833 43.9479L35.4612 43.469ZM35.4222 34.031L34.5443 33.5521L34.5412 33.5579L35.4222 34.031ZM38.6982 30.638L39.208 31.4984L39.2196 31.4913L38.6982 30.638ZM48.6822 30.638L48.1607 31.4914L48.1724 31.4983L48.6822 30.638ZM51.9192 34.031L51.0346 34.4974L51.0382 34.5041L51.9192 34.031ZM51.8802 43.469L51.0022 42.9901L50.9956 43.0026L51.8802 43.469ZM48.6432 46.862L49.153 47.7223L49.153 47.7223L48.6432 46.862ZM47.3952 42.962L46.5952 42.362L46.5908 42.3679L46.5865 42.3738L47.3952 42.962ZM48.0582 35.786L47.1487 36.2018L47.1534 36.2118L48.0582 35.786ZM46.2642 33.602L45.6777 34.4119L45.6842 34.4166L45.6907 34.4212L46.2642 33.602ZM40.9602 33.602L40.3602 32.802L40.3602 32.802L40.9602 33.602ZM39.2442 35.786L38.3346 35.3702L38.3293 35.3824L39.2442 35.786ZM39.3222 41.792L38.4226 42.2289L38.4278 42.2392L39.3222 41.792ZM41.1162 43.898L40.5485 44.7212L40.5549 44.7257L40.5615 44.7301L41.1162 43.898ZM43.6902 48.11V47.11C41.9712 47.11 40.4981 46.7296 39.2401 45.9977L38.7372 46.862L38.2343 47.7263C39.8363 48.6584 41.6652 49.11 43.6902 49.11V48.11ZM38.7372 46.862L39.247 46.0017C37.9975 45.2612 37.0328 44.2619 36.3391 42.9901L35.4612 43.469L34.5833 43.9479C35.4496 45.5361 36.6689 46.7988 38.2274 47.7223L38.7372 46.862ZM35.4612 43.469L36.3391 42.9901C35.6448 41.7172 35.2912 40.2977 35.2912 38.711H34.2912H33.2912C33.2912 40.6084 33.7176 42.3608 34.5833 43.9479L35.4612 43.469ZM34.2912 38.711H35.2912C35.2912 37.1471 35.6332 35.7516 36.3032 34.5041L35.4222 34.031L34.5412 33.5579C33.7031 35.1184 33.2912 36.8429 33.2912 38.711H34.2912ZM35.4222 34.031L36.3001 34.5099C36.9938 33.2381 37.9585 32.2388 39.208 31.4983L38.6982 30.638L38.1884 29.7777C36.6299 30.7012 35.4106 31.9639 34.5443 33.5521L35.4222 34.031ZM38.6982 30.638L39.2196 31.4913C40.4417 30.7445 41.9186 30.351 43.6902 30.351V29.351V28.351C41.6138 28.351 39.7627 28.8155 38.1767 29.7847L38.6982 30.638ZM43.6902 29.351V30.351C45.4618 30.351 46.9387 30.7445 48.1607 31.4913L48.6822 30.638L49.2036 29.7847C47.6177 28.8155 45.7666 28.351 43.6902 28.351V29.351ZM48.6822 30.638L48.1724 31.4983C49.4191 32.2371 50.3676 33.2324 51.0346 34.4974L51.9192 34.031L52.8038 33.5646C51.9628 31.9696 50.7533 30.7029 49.192 29.7777L48.6822 30.638ZM51.9192 34.031L51.0382 34.5041C51.7081 35.7516 52.0502 37.1471 52.0502 38.711H53.0502H54.0502C54.0502 36.8429 53.6382 35.1184 52.8002 33.5579L51.9192 34.031ZM53.0502 38.711H52.0502C52.0502 40.2977 51.6966 41.7172 51.0023 42.9901L51.8802 43.469L52.7581 43.9479C53.6238 42.3608 54.0502 40.6084 54.0502 38.711H53.0502ZM51.8802 43.469L50.9956 43.0026C50.3286 44.2676 49.3801 45.2629 48.1334 46.0017L48.6432 46.862L49.153 47.7223C50.7143 46.7971 51.9238 45.5304 52.7648 43.9354L51.8802 43.469ZM48.6432 46.862L48.1334 46.0017C46.9074 46.7283 45.4384 47.11 43.6902 47.11V48.11V49.11C45.738 49.11 47.571 48.6597 49.153 47.7223L48.6432 46.862ZM43.8072 44.678V45.678C45.649 45.678 47.1624 44.9823 48.2039 43.5502L47.3952 42.962L46.5865 42.3738C45.964 43.2297 45.0854 43.678 43.8072 43.678V44.678ZM47.3952 42.962L48.1952 43.562C49.2014 42.2204 49.6822 40.6105 49.6822 38.789H48.6822H47.6822C47.6822 40.2435 47.305 41.4156 46.5952 42.362L47.3952 42.962ZM48.6822 38.789H49.6822C49.6822 37.545 49.4502 36.3954 48.963 35.3602L48.0582 35.786L47.1534 36.2118C47.4982 36.9446 47.6822 37.797 47.6822 38.789H48.6822ZM48.0582 35.786L48.9677 35.3702C48.4815 34.3068 47.7712 33.4362 46.8377 32.7828L46.2642 33.602L45.6907 34.4212C46.3172 34.8598 46.8029 35.4452 47.1487 36.2018L48.0582 35.786ZM46.2642 33.602L46.8507 32.7921C45.9063 32.1082 44.798 31.783 43.5732 31.783V32.783V33.783C44.4284 33.783 45.1141 34.0038 45.6777 34.4119L46.2642 33.602ZM43.5732 32.783V31.783C42.3688 31.783 41.281 32.1114 40.3602 32.802L40.9602 33.602L41.5602 34.402C42.0954 34.0006 42.7496 33.783 43.5732 33.783V32.783ZM40.9602 33.602L40.3602 32.802C39.4856 33.4579 38.8131 34.3238 38.3347 35.3702L39.2442 35.786L40.1537 36.2018C40.5073 35.4282 40.9788 34.8381 41.5602 34.402L40.9602 33.602ZM39.2442 35.786L38.3293 35.3824C37.875 36.412 37.6592 37.5537 37.6592 38.789H38.6592H39.6592C39.6592 37.7883 39.8334 36.928 40.1591 36.1896L39.2442 35.786ZM38.6592 38.789H37.6592C37.6592 40.0201 37.9094 41.1721 38.4227 42.2289L39.3222 41.792L40.2217 41.3551C39.851 40.5919 39.6592 39.7419 39.6592 38.789H38.6592ZM39.3222 41.792L38.4278 42.2392C38.9391 43.2618 39.6447 44.0979 40.5485 44.7212L41.1162 43.898L41.6839 43.0748C41.0797 42.6581 40.5893 42.0902 40.2166 41.3448L39.3222 41.792ZM41.1162 43.898L40.5615 44.7301C41.5193 45.3686 42.6126 45.678 43.8072 45.678V44.678V43.678C42.9737 43.678 42.2731 43.4674 41.6709 43.066L41.1162 43.898ZM57.1674 47.72H56.1674V48.72H57.1674V47.72ZM57.1674 29.819V28.819H56.1674V29.819H57.1674ZM61.3014 29.819L62.3014 29.8071L62.2896 28.819H61.3014V29.819ZM61.3404 33.095L60.3405 33.1069L62.2561 33.497L61.3404 33.095ZM63.6024 30.443L64.1619 31.2719L64.1664 31.2688L63.6024 30.443ZM71.7534 30.56L71.1112 31.3265L71.1174 31.3317L71.1236 31.3368L71.7534 30.56ZM73.6644 33.914L72.6866 34.1235L72.6884 34.1318L72.6903 34.1401L73.6644 33.914ZM74.1714 47.72V48.72H75.1714V47.72H74.1714ZM69.9594 47.72H68.9594V48.72H69.9594V47.72ZM69.3354 34.46L68.3937 34.7963L68.3972 34.8062L68.401 34.816L69.3354 34.46ZM64.2264 33.524L63.7243 32.6592L63.7243 32.6592L64.2264 33.524ZM62.1984 35.552L63.0492 36.0775L63.0492 36.0775L62.1984 35.552ZM61.3794 47.72V48.72H62.3794V47.72H61.3794ZM57.1674 47.72H58.1674V29.819H57.1674H56.1674V47.72H57.1674ZM57.1674 29.819V30.819H61.3014V29.819V28.819H57.1674V29.819ZM61.3014 29.819L60.3015 29.8309L60.3405 33.1069L61.3404 33.095L62.3404 33.0831L62.3014 29.8071L61.3014 29.819ZM61.3404 33.095L62.2561 33.497C62.6422 32.6176 63.2659 31.8767 64.1619 31.2718L63.6024 30.443L63.043 29.6142C61.859 30.4133 60.9747 31.4404 60.4248 32.693L61.3404 33.095ZM63.6024 30.443L64.1664 31.2688C65.0425 30.6705 66.1129 30.351 67.4244 30.351V29.351V28.351C65.7719 28.351 64.2943 28.7595 63.0385 29.6172L63.6024 30.443ZM67.4244 29.351V30.351C69.2332 30.351 70.4035 30.7335 71.1112 31.3265L71.7534 30.56L72.3957 29.7935C71.1794 28.7745 69.4637 28.351 67.4244 28.351V29.351ZM71.7534 30.56L71.1236 31.3368C71.8743 31.9454 72.4124 32.8439 72.6866 34.1235L73.6644 33.914L74.6422 33.7045C74.2924 32.0721 73.5565 30.7346 72.3832 29.7832L71.7534 30.56ZM73.6644 33.914L72.6903 34.1401C73.0065 35.5018 73.1714 37.1512 73.1714 39.101H74.1714H75.1714C75.1714 37.0468 74.9984 35.2382 74.6385 33.6879L73.6644 33.914ZM74.1714 39.101H73.1714V47.72H74.1714H75.1714V39.101H74.1714ZM74.1714 47.72V46.72H69.9594V47.72V48.72H74.1714V47.72ZM69.9594 47.72H70.9594V39.218H69.9594H68.9594V47.72H69.9594ZM69.9594 39.218H70.9594C70.9594 37.096 70.7506 35.3659 70.2699 34.104L69.3354 34.46L68.401 34.816C68.7522 35.7381 68.9594 37.18 68.9594 39.218H69.9594ZM69.3354 34.46L70.2772 34.1237C70.0105 33.3769 69.5392 32.7727 68.8598 32.3708C68.1985 31.9796 67.4119 31.822 66.5664 31.822V32.822V33.822C67.177 33.822 67.5798 33.9374 67.8416 34.0922C68.0852 34.2363 68.2704 34.4511 68.3937 34.7963L69.3354 34.46ZM66.5664 32.822V31.822C65.5989 31.822 64.6471 32.1234 63.7243 32.6592L64.2264 33.524L64.7286 34.3888C65.4178 33.9886 66.026 33.822 66.5664 33.822V32.822ZM64.2264 33.524L63.7243 32.6592C62.7602 33.219 61.9701 34.0188 61.3476 35.0265L62.1984 35.552L63.0492 36.0775C63.5188 35.3172 64.0807 34.765 64.7286 34.3888L64.2264 33.524ZM62.1984 35.552L61.3476 35.0265C60.6823 36.1037 60.3794 37.3887 60.3794 38.828H61.3794H62.3794C62.3794 37.6673 62.6226 36.7683 63.0492 36.0775L62.1984 35.552ZM61.3794 38.828H60.3794V47.72H61.3794H62.3794V38.828H61.3794ZM61.3794 47.72V46.72H57.1674V47.72V48.72H61.3794V47.72ZM79.0669 47.72H78.0669V48.72H79.0669V47.72ZM79.0669 29.819V28.819H78.0669V29.819H79.0669ZM83.2009 29.819L84.2008 29.8071L84.189 28.819H83.2009V29.819ZM83.2399 33.095L82.2399 33.1069L84.1555 33.497L83.2399 33.095ZM85.5019 30.443L86.0613 31.2719L86.0658 31.2688L85.5019 30.443ZM93.6529 30.56L93.0106 31.3265L93.0168 31.3317L93.0231 31.3368L93.6529 30.56ZM95.5639 33.914L94.586 34.1235L94.5878 34.1318L94.5898 34.1401L95.5639 33.914ZM96.0709 47.72V48.72H97.0709V47.72H96.0709ZM91.8589 47.72H90.8589V48.72H91.8589V47.72ZM91.2349 34.46L90.2931 34.7963L90.2966 34.8062L90.3004 34.816L91.2349 34.46ZM86.1259 33.524L85.6237 32.6592L85.6237 32.6592L86.1259 33.524ZM84.0979 35.552L84.9486 36.0775L84.9486 36.0775L84.0979 35.552ZM83.2789 47.72V48.72H84.2789V47.72H83.2789ZM79.0669 47.72H80.0669V29.819H79.0669H78.0669V47.72H79.0669ZM79.0669 29.819V30.819H83.2009V29.819V28.819H79.0669V29.819ZM83.2009 29.819L82.2009 29.8309L82.2399 33.1069L83.2399 33.095L84.2398 33.0831L84.2008 29.8071L83.2009 29.819ZM83.2399 33.095L84.1555 33.497C84.5416 32.6176 85.1653 31.8767 86.0613 31.2718L85.5019 30.443L84.9424 29.6142C83.7584 30.4133 82.8741 31.4404 82.3242 32.693L83.2399 33.095ZM85.5019 30.443L86.0658 31.2688C86.942 30.6705 88.0124 30.351 89.3239 30.351V29.351V28.351C87.6713 28.351 86.1938 28.7595 84.9379 29.6172L85.5019 30.443ZM89.3239 29.351V30.351C91.1326 30.351 92.3029 30.7335 93.0106 31.3265L93.6529 30.56L94.2951 29.7935C93.0788 28.7745 91.3631 28.351 89.3239 28.351V29.351ZM93.6529 30.56L93.0231 31.3368C93.7737 31.9454 94.3119 32.8439 94.586 34.1235L95.5639 33.914L96.5417 33.7045C96.1919 32.0721 95.456 30.7346 94.2827 29.7832L93.6529 30.56ZM95.5639 33.914L94.5898 34.1401C94.9059 35.5018 95.0709 37.1512 95.0709 39.101H96.0709H97.0709C97.0709 37.0468 96.8978 35.2382 96.5379 33.6879L95.5639 33.914ZM96.0709 39.101H95.0709V47.72H96.0709H97.0709V39.101H96.0709ZM96.0709 47.72V46.72H91.8589V47.72V48.72H96.0709V47.72ZM91.8589 47.72H92.8589V39.218H91.8589H90.8589V47.72H91.8589ZM91.8589 39.218H92.8589C92.8589 37.096 92.65 35.3659 92.1693 34.104L91.2349 34.46L90.3004 34.816C90.6517 35.7381 90.8589 37.18 90.8589 39.218H91.8589ZM91.2349 34.46L92.1766 34.1237C91.9099 33.3769 91.4386 32.7727 90.7592 32.3708C90.098 31.9796 89.3113 31.822 88.4659 31.822V32.822V33.822C89.0764 33.822 89.4792 33.9374 89.741 34.0922C89.9846 34.2363 90.1698 34.4511 90.2931 34.7963L91.2349 34.46ZM88.4659 32.822V31.822C87.4983 31.822 86.5465 32.1234 85.6237 32.6592L86.1259 33.524L86.628 34.3888C87.3172 33.9886 87.9254 33.822 88.4659 33.822V32.822ZM86.1259 33.524L85.6237 32.6592C84.6596 33.219 83.8695 34.0188 83.2471 35.0265L84.0979 35.552L84.9486 36.0775C85.4182 35.3172 85.9801 34.765 86.628 34.3888L86.1259 33.524ZM84.0979 35.552L83.2471 35.0265C82.5817 36.1037 82.2789 37.3887 82.2789 38.828H83.2789H84.2789C84.2789 37.6673 84.522 36.7683 84.9486 36.0775L84.0979 35.552ZM83.2789 38.828H82.2789V47.72H83.2789H84.2789V38.828H83.2789ZM83.2789 47.72V46.72H79.0669V47.72V48.72H83.2789V47.72ZM104.122 46.823L103.589 47.6693L103.6 47.6763L104.122 46.823ZM101.041 43.352L101.951 42.9382L101.041 43.352ZM101.236 33.758L100.368 33.2601L100.361 33.2724L101.236 33.758ZM104.551 30.521L105.024 31.402L105.03 31.3986L105.036 31.3952L104.551 30.521ZM115.51 31.73L114.736 32.3639L114.741 32.3702L115.51 31.73ZM117.343 40.232V41.232H118.244L118.337 40.3349L117.343 40.232ZM104.473 40.232V39.232H103.28L103.488 40.4067L104.473 40.232ZM106.189 43.703L105.555 44.477L105.568 44.4874L105.581 44.4974L106.189 43.703ZM115.003 43.547L115.922 43.1531L115.504 42.1783L114.555 42.6526L115.003 43.547ZM116.29 46.55L116.835 47.3884L117.54 46.9297L117.209 46.1561L116.29 46.55ZM113.872 47.603L114.167 48.5583L114.178 48.5551L114.188 48.5517L113.872 47.603ZM104.473 37.307L103.481 37.1748L103.33 38.307H104.473V37.307ZM113.365 37.307V38.307H114.349L114.364 37.3224L113.365 37.307ZM112.234 33.836L111.609 34.6169L111.609 34.6169L112.234 33.836ZM105.994 33.953L106.636 34.7192L106.638 34.7173L105.994 33.953ZM109.582 48.11V47.11C107.466 47.11 105.843 46.7032 104.643 45.9697L104.122 46.823L103.6 47.6763C105.208 48.6588 107.225 49.11 109.582 49.11V48.11ZM104.122 46.823L104.654 45.9768C103.406 45.1908 102.515 44.18 101.951 42.9382L101.041 43.352L100.13 43.7658C100.866 45.384 102.029 46.6872 103.589 47.6692L104.122 46.823ZM101.041 43.352L101.951 42.9382C101.362 41.6416 101.066 40.2621 101.066 38.789H100.066H99.0656C99.0656 40.5399 99.4196 42.2024 100.13 43.7658L101.041 43.352ZM100.066 38.789H101.066C101.066 36.9728 101.428 35.4704 102.11 34.2436L101.236 33.758L100.361 33.2724C99.483 34.8536 99.0656 36.7052 99.0656 38.789H100.066ZM101.236 33.758L102.103 34.2559C102.817 33.0112 103.787 32.0661 105.024 31.402L104.551 30.521L104.077 29.64C102.506 30.4839 101.266 31.6968 100.368 33.2601L101.236 33.758ZM104.551 30.521L105.036 31.3952C106.277 30.7058 107.693 30.351 109.309 30.351V29.351V28.351C107.388 28.351 105.632 28.7762 104.065 29.6468L104.551 30.521ZM109.309 29.351V30.351C111.964 30.351 113.691 31.0891 114.736 32.3639L115.51 31.73L116.283 31.0961C114.728 29.1989 112.322 28.351 109.309 28.351V29.351ZM115.51 31.73L114.741 32.3702C115.851 33.7017 116.46 35.5574 116.46 38.048H117.46H118.46C118.46 35.2346 117.768 32.8783 116.278 31.0898L115.51 31.73ZM117.46 38.048H116.46C116.46 38.713 116.423 39.4066 116.348 40.1291L117.343 40.232L118.337 40.3349C118.419 39.5494 118.46 38.787 118.46 38.048H117.46ZM117.343 40.232V39.232H104.473V40.232V41.232H117.343V40.232ZM104.473 40.232L103.488 40.4067C103.796 42.1449 104.442 43.5657 105.555 44.477L106.189 43.703L106.822 42.929C106.22 42.4363 105.721 41.5431 105.457 40.0573L104.473 40.232ZM106.189 43.703L105.581 44.4974C106.687 45.3428 108.091 45.717 109.699 45.717V44.717V43.717C108.394 43.717 107.459 43.4152 106.796 42.9086L106.189 43.703ZM109.699 44.717V45.717C111.148 45.717 112.372 45.5848 113.321 45.2787L113.014 44.327L112.707 43.3753C112.044 43.5892 111.057 43.717 109.699 43.717V44.717ZM113.014 44.327L113.321 45.2787C114.155 45.0095 114.869 44.7317 115.45 44.4414L115.003 43.547L114.555 42.6526C114.096 42.8823 113.484 43.1245 112.707 43.3753L113.014 44.327ZM115.003 43.547L114.083 43.9409L115.37 46.9439L116.29 46.55L117.209 46.1561L115.922 43.1531L115.003 43.547ZM116.29 46.55L115.745 45.7116C115.333 45.9794 114.623 46.2985 113.555 46.6543L113.872 47.603L114.188 48.5517C115.304 48.1795 116.207 47.7966 116.835 47.3884L116.29 46.55ZM113.872 47.603L113.576 46.6477C112.617 46.9445 111.298 47.11 109.582 47.11V48.11V49.11C111.401 49.11 112.942 48.9375 114.167 48.5583L113.872 47.603ZM104.473 37.307V38.307H113.365V37.307V36.307H104.473V37.307ZM113.365 37.307L114.364 37.3224C114.392 35.5326 114.006 33.9734 112.858 33.0551L112.234 33.836L111.609 34.6169C112.021 34.9466 112.389 35.7014 112.365 37.2916L113.365 37.307ZM112.234 33.836L112.858 33.0551C111.86 32.2569 110.609 31.9 109.192 31.9V32.9V33.9C110.27 33.9 111.047 34.1671 111.609 34.6169L112.234 33.836ZM109.192 32.9V31.9C107.704 31.9 106.395 32.3062 105.349 33.1887L105.994 33.953L106.638 34.7173C107.257 34.1958 108.08 33.9 109.192 33.9V32.9ZM105.994 33.953L105.351 33.1868C104.278 34.0869 103.706 35.4872 103.481 37.1748L104.473 37.307L105.464 37.4392C105.655 36.0068 106.097 35.1711 106.636 34.7192L105.994 33.953ZM125.463 46.979L124.99 47.86L124.997 47.8636L125.463 46.979ZM122.07 43.703L121.206 44.2059L121.213 44.2175L122.07 43.703ZM121.953 33.68L121.083 33.1874L121.08 33.1937L121.076 33.2L121.953 33.68ZM125.19 30.482L124.717 29.601L124.71 29.6047L125.19 30.482ZM133.731 29.936L133.356 30.8628L133.364 30.8662L133.731 29.936ZM135.954 31.184L136.83 31.6671L137.215 30.9698L136.621 30.4388L135.954 31.184ZM134.082 34.577L133.302 35.2017L134.236 36.3693L134.958 35.0601L134.082 34.577ZM133.458 33.992L134.099 33.2238L134.099 33.2238L133.458 33.992ZM132.21 33.29L131.782 34.1937L131.81 34.207L131.839 34.2185L132.21 33.29ZM126.516 34.499L125.745 33.8626L125.74 33.8684L125.736 33.8743L126.516 34.499ZM126.594 43.001L125.817 43.6302L125.825 43.6403L125.834 43.6503L126.594 43.001ZM132.795 44.249L133.092 45.2041L133.107 45.1995L133.121 45.1944L132.795 44.249ZM134.511 43.43L135.401 42.9734L134.866 41.9301L133.92 42.6236L134.511 43.43ZM136.032 46.394L136.646 47.1834L137.3 46.6746L136.922 45.9374L136.032 46.394ZM133.809 47.525L133.45 46.5917L133.45 46.5917L133.809 47.525ZM130.221 48.11V47.11C128.629 47.11 127.205 46.7668 125.93 46.0944L125.463 46.979L124.997 47.8636C126.582 48.6992 128.33 49.11 130.221 49.11V48.11ZM125.463 46.979L125.937 46.098C124.699 45.4333 123.698 44.4714 122.928 43.1885L122.07 43.703L121.213 44.2175C122.159 45.7946 123.42 47.0167 124.99 47.86L125.463 46.979ZM122.07 43.703L122.935 43.2001C122.209 41.952 121.822 40.4174 121.822 38.555H120.822H119.822C119.822 40.6966 120.268 42.594 121.206 44.2059L122.07 43.703ZM120.822 38.555H121.822C121.822 36.8186 122.171 35.365 122.831 34.16L121.953 33.68L121.076 33.2C120.228 34.751 119.822 36.5474 119.822 38.555H120.822ZM121.953 33.68L122.824 34.1726C123.513 32.9553 124.457 32.0231 125.67 31.3593L125.19 30.482L124.71 29.6047C123.168 30.4489 121.954 31.6487 121.083 33.1874L121.953 33.68ZM125.19 30.482L125.664 31.363C126.903 30.6976 128.348 30.351 130.026 30.351V29.351V28.351C128.065 28.351 126.286 28.7584 124.717 29.601L125.19 30.482ZM130.026 29.351V30.351C131.459 30.351 132.554 30.5378 133.356 30.8627L133.731 29.936L134.107 29.0093C132.985 28.5542 131.61 28.351 130.026 28.351V29.351ZM133.731 29.936L133.364 30.8662C134.3 31.2357 134.919 31.5992 135.288 31.9292L135.954 31.184L136.621 30.4388C136.002 29.8848 135.138 29.4163 134.099 29.0058L133.731 29.936ZM135.954 31.184L135.079 30.7009L133.207 34.0939L134.082 34.577L134.958 35.0601L136.83 31.6671L135.954 31.184ZM134.082 34.577L134.863 33.9523C134.689 33.7349 134.41 33.483 134.099 33.2238L133.458 33.992L132.818 34.7602C133.131 35.021 133.267 35.1591 133.302 35.2017L134.082 34.577ZM133.458 33.992L134.099 33.2238C133.682 32.8765 133.165 32.5948 132.582 32.3615L132.21 33.29L131.839 34.2185C132.296 34.4012 132.611 34.5875 132.818 34.7602L133.458 33.992ZM132.21 33.29L132.639 32.3863C131.974 32.0715 131.207 31.939 130.377 31.939V32.939V33.939C131.004 33.939 131.459 34.0405 131.782 34.1937L132.21 33.29ZM130.377 32.939V31.939C128.451 31.939 126.843 32.532 125.745 33.8626L126.516 34.499L127.288 35.1354C127.906 34.386 128.872 33.939 130.377 33.939V32.939ZM126.516 34.499L125.736 33.8743C124.731 35.1294 124.268 36.7046 124.268 38.516H125.268H126.268C126.268 37.0514 126.637 35.9486 127.297 35.1237L126.516 34.499ZM125.268 38.516H124.268C124.268 40.5628 124.746 42.3065 125.817 43.6302L126.594 43.001L127.372 42.3718C126.675 41.5115 126.268 40.2652 126.268 38.516H125.268ZM126.594 43.001L125.834 43.6503C126.963 44.9735 128.522 45.6 130.377 45.6V44.6V43.6C129.009 43.6 128.045 43.1605 127.355 42.3517L126.594 43.001ZM130.377 44.6V45.6C131.327 45.6 132.234 45.4703 133.092 45.2041L132.795 44.249L132.499 43.2939C131.849 43.4957 131.144 43.6 130.377 43.6V44.6ZM132.795 44.249L133.121 45.1944C133.917 44.9199 134.596 44.6077 135.103 44.2364L134.511 43.43L133.92 42.6236C133.646 42.8243 133.182 43.0581 132.469 43.3036L132.795 44.249ZM134.511 43.43L133.622 43.8866L135.143 46.8506L136.032 46.394L136.922 45.9374L135.401 42.9734L134.511 43.43ZM136.032 46.394L135.419 45.6046C135.067 45.8777 134.436 46.2128 133.45 46.5917L133.809 47.525L134.168 48.4583C135.211 48.0572 136.061 47.6383 136.646 47.1834L136.032 46.394ZM133.809 47.525L133.45 46.5917C132.577 46.9275 131.508 47.11 130.221 47.11V48.11V49.11C131.691 49.11 133.014 48.9025 134.168 48.4583L133.809 47.525ZM141.602 47.72H140.602V48.72H141.602V47.72ZM141.602 33.251H142.602V32.251H141.602V33.251ZM138.443 33.251H137.443V34.251H138.443V33.251ZM138.443 29.819V28.819H137.443V29.819H138.443ZM141.602 29.819V30.819H142.602V29.819H141.602ZM141.602 22.526L141.387 21.5494L140.602 21.7222V22.526H141.602ZM145.853 21.59H146.853V20.3459L145.638 20.6134L145.853 21.59ZM145.853 29.819H144.853V30.819H145.853V29.819ZM149.987 29.819H150.987V28.819H149.987V29.819ZM149.987 33.251V34.251H150.987V33.251H149.987ZM145.853 33.251V32.251H144.853V33.251H145.853ZM145.853 47.72V48.72H146.853V47.72H145.853ZM141.602 47.72H142.602V33.251H141.602H140.602V47.72H141.602ZM141.602 33.251V32.251H138.443V33.251V34.251H141.602V33.251ZM138.443 33.251H139.443V29.819H138.443H137.443V33.251H138.443ZM138.443 29.819V30.819H141.602V29.819V28.819H138.443V29.819ZM141.602 29.819H142.602V22.526H141.602H140.602V29.819H141.602ZM141.602 22.526L141.817 23.5026L146.068 22.5666L145.853 21.59L145.638 20.6134L141.387 21.5494L141.602 22.526ZM145.853 21.59H144.853V29.819H145.853H146.853V21.59H145.853ZM145.853 29.819V30.819H149.987V29.819V28.819H145.853V29.819ZM149.987 29.819H148.987V33.251H149.987H150.987V29.819H149.987ZM149.987 33.251V32.251H145.853V33.251V34.251H149.987V33.251ZM145.853 33.251H144.853V47.72H145.853H146.853V33.251H145.853ZM145.853 47.72V46.72H141.602V47.72V48.72H145.853V47.72Z" fill="white" mask="url(#path-1-outside-1_9085_32143)"/>
<path d="M19.5039 19.8C20.0098 19.8 20.4776 19.8825 20.8311 20.1203C21.2195 20.3818 21.4003 20.7828 21.4004 21.2395C21.4004 21.9004 21.1673 22.5044 20.7354 23.0432C19.5718 24.9221 18.216 27.0739 16.667 29.4973C15.2011 31.8337 13.7731 34.3271 12.3828 36.9778C10.996 39.6219 9.84151 42.2246 8.91895 44.7854C8.00282 47.3283 7.55183 49.6591 7.55176 51.7815C7.55176 52.8955 7.73458 53.7367 8.06055 54.3401C8.40279 54.8466 9.02197 55.1583 10.0771 55.1584C11.1666 55.1584 12.4984 54.6385 14.0908 53.4904C15.6976 52.2539 17.2286 50.9014 18.6836 49.4328C20.2326 47.8693 21.3434 46.6697 22.0254 45.8283L22.0332 45.8186L22.042 45.8088C22.8173 44.9479 23.5543 44.1264 24.252 43.344L24.2695 43.3244C25.0277 42.5591 25.7096 41.7567 26.3145 40.9172L26.3369 40.886L26.3643 40.8576C26.4976 40.7231 26.6372 40.605 26.7812 40.5178C26.9225 40.4323 27.1002 40.3576 27.3018 40.3576L27.4424 40.3645C27.7654 40.3989 28.0501 40.5552 28.2422 40.8459C28.4377 41.142 28.5 41.5228 28.5 41.9143C28.5 42.4412 28.2892 42.9041 27.917 43.2922C27.0677 44.3054 26.219 45.3587 25.3691 46.4504L25.3633 46.4572L25.3574 46.4651C24.504 47.4831 23.6117 48.5003 22.6816 49.5178L22.2051 50.0822C21.076 51.4032 19.8283 52.7529 18.4629 54.1311C16.8847 55.7241 15.1853 57.0802 13.3652 58.1985L13.3584 58.2033L13.3516 58.2072C11.4901 59.2693 9.46412 59.8 7.28418 59.8C5.4597 59.8 3.8669 59.21 2.53125 58.0305L2.52441 58.0246L2.51855 58.0188C1.13107 56.7058 0.5 54.5794 0.5 51.7815C0.500032 50.5747 0.619264 49.2551 0.855469 47.8244L0.857422 47.8117C1.56322 44.0916 2.70162 40.529 4.27051 37.1242L4.27441 37.1154C5.90858 33.738 7.46771 30.8258 8.95215 28.3811L8.9541 28.3772C10.5063 25.8704 11.5128 24.2299 11.9756 23.4514C12.4571 22.5152 13.6001 21.7243 15.2148 21.0237L15.8252 20.7424C17.227 20.1269 18.4582 19.8001 19.5039 19.8Z" fill="#0140A2" stroke="white"/>
<path d="M25.5801 0.5C26.7373 0.500018 27.6848 0.90481 28.3525 1.74609C29.1097 2.5155 29.3725 3.51741 29.1943 4.67578L29.1914 4.69434L29.1875 4.71289C28.9242 5.85356 28.35 6.82339 27.4746 7.61133C26.6619 8.41515 25.6606 8.82031 24.5 8.82031C23.5036 8.82031 22.6509 8.49848 21.9863 7.83398L21.9746 7.82227L21.9639 7.80957C21.3297 7.08475 21.0001 6.24935 21 5.32031C21 3.99666 21.4468 2.86668 22.3467 1.9668C23.3007 1.01278 24.3819 0.5 25.5801 0.5Z" fill="#0140A2" stroke="white"/>
</svg>
